<svg width="121" height="129" fill="none" xmlns="http://www.w3.org/2000/svg"><circle cx="118.5" cy="2.5" r="2.5" fill="url(#a)"/><circle cx="89.5" cy="2.5" r="2.5" fill="url(#b)"/><circle cx="60.5" cy="2.5" r="2.5" fill="url(#c)"/><circle cx="31.5" cy="2.5" r="2.5" fill="url(#d)"/><circle cx="2.5" cy="2.5" r="2.5" fill="url(#e)"/><circle cx="118.5" cy="27.5" r="2.5" fill="url(#f)"/><circle cx="89.5" cy="27.5" r="2.5" fill="url(#g)"/><circle cx="60.5" cy="27.5" r="2.5" fill="url(#h)"/><circle cx="31.5" cy="27.5" r="2.5" fill="url(#i)"/><circle cx="2.5" cy="27.5" r="2.5" fill="url(#j)"/><circle cx="118.5" cy="51.5" r="2.5" fill="url(#k)"/><circle cx="89.5" cy="51.5" r="2.5" fill="url(#l)"/><circle cx="60.5" cy="51.5" r="2.5" fill="url(#m)"/><circle cx="31.5" cy="51.5" r="2.5" fill="url(#n)"/><circle cx="2.5" cy="51.5" r="2.5" fill="url(#o)"/><circle cx="118.5" cy="76.5" r="2.5" fill="url(#p)"/><circle cx="89.5" cy="76.5" r="2.5" fill="url(#q)"/><circle cx="60.5" cy="76.5" r="2.5" fill="url(#r)"/><circle cx="31.5" cy="76.5" r="2.5" fill="url(#s)"/><circle cx="2.5" cy="76.5" r="2.5" fill="url(#t)"/><circle cx="118.5" cy="101.5" r="2.5" fill="url(#u)"/><circle cx="89.5" cy="101.5" r="2.5" fill="url(#v)"/><circle cx="89.5" cy="126.5" r="2.5" fill="url(#w)"/><circle cx="118.5" cy="126.5" r="2.5" fill="url(#x)"/><circle cx="60.5" cy="101.5" r="2.5" fill="url(#y)"/><circle cx="60.5" cy="126.5" r="2.5" fill="url(#z)"/><circle cx="31.5" cy="101.5" r="2.5" fill="url(#A)"/><circle cx="31.5" cy="126.5" r="2.5" fill="url(#B)"/><circle cx="2.5" cy="101.5" r="2.5" fill="url(#C)"/><circle cx="2.5" cy="126.5" r="2.5" fill="url(#D)"/><defs><linearGradient id="a" x1="116.266" y1=".447" x2="120.202" y2="3.801" gradientUnits="userSpaceOnUse"><stop stop-color="#0081C3"/><stop offset="1" stop-color="#025193"/></linearGradient><linearGradient id="b" x1="87.266" y1=".447" x2="91.203" y2="3.801" gradientUnits="userSpaceOnUse"><stop stop-color="#0081C3"/><stop offset="1" stop-color="#025193"/></linearGradient><linearGradient id="c" x1="58.266" y1=".447" x2="62.203" y2="3.801" gradientUnits="userSpaceOnUse"><stop stop-color="#0081C3"/><stop offset="1" stop-color="#025193"/></linearGradient><linearGradient id="d" x1="29.266" y1=".447" x2="33.203" y2="3.801" gradientUnits="userSpaceOnUse"><stop stop-color="#0081C3"/><stop offset="1" stop-color="#025193"/></linearGradient><linearGradient id="e" x1=".266" y1=".447" x2="4.202" y2="3.801" gradientUnits="userSpaceOnUse"><stop stop-color="#0081C3"/><stop offset="1" stop-color="#025193"/></linearGradient><linearGradient id="f" x1="116.266" y1="25.447" x2="120.202" y2="28.801" gradientUnits="userSpaceOnUse"><stop stop-color="#0081C3"/><stop offset="1" stop-color="#025193"/></linearGradient><linearGradient id="g" x1="87.266" y1="25.447" x2="91.203" y2="28.801" gradientUnits="userSpaceOnUse"><stop stop-color="#0081C3"/><stop offset="1" stop-color="#025193"/></linearGradient><linearGradient id="h" x1="58.266" y1="25.447" x2="62.203" y2="28.801" gradientUnits="userSpaceOnUse"><stop stop-color="#0081C3"/><stop offset="1" stop-color="#025193"/></linearGradient><linearGradient id="i" x1="29.266" y1="25.447" x2="33.203" y2="28.801" gradientUnits="userSpaceOnUse"><stop stop-color="#0081C3"/><stop offset="1" stop-color="#025193"/></linearGradient><linearGradient id="j" x1=".266" y1="25.447" x2="4.202" y2="28.801" gradientUnits="userSpaceOnUse"><stop stop-color="#0081C3"/><stop offset="1" stop-color="#025193"/></linearGradient><linearGradient id="k" x1="116.266" y1="49.447" x2="120.202" y2="52.801" gradientUnits="userSpaceOnUse"><stop stop-color="#0081C3"/><stop offset="1" stop-color="#025193"/></linearGradient><linearGradient id="l" x1="87.266" y1="49.447" x2="91.203" y2="52.801" gradientUnits="userSpaceOnUse"><stop stop-color="#0081C3"/><stop offset="1" stop-color="#025193"/></linearGradient><linearGradient id="m" x1="58.266" y1="49.447" x2="62.203" y2="52.801" gradientUnits="userSpaceOnUse"><stop stop-color="#0081C3"/><stop offset="1" stop-color="#025193"/></linearGradient><linearGradient id="n" x1="29.266" y1="49.447" x2="33.203" y2="52.801" gradientUnits="userSpaceOnUse"><stop stop-color="#0081C3"/><stop offset="1" stop-color="#025193"/></linearGradient><linearGradient id="o" x1=".266" y1="49.447" x2="4.202" y2="52.801" gradientUnits="userSpaceOnUse"><stop stop-color="#0081C3"/><stop offset="1" stop-color="#025193"/></linearGradient><linearGradient id="p" x1="116.266" y1="74.447" x2="120.202" y2="77.801" gradientUnits="userSpaceOnUse"><stop stop-color="#0081C3"/><stop offset="1" stop-color="#025193"/></linearGradient><linearGradient id="q" x1="87.266" y1="74.447" x2="91.203" y2="77.801" gradientUnits="userSpaceOnUse"><stop stop-color="#0081C3"/><stop offset="1" stop-color="#025193"/></linearGradient><linearGradient id="r" x1="58.266" y1="74.447" x2="62.203" y2="77.801" gradientUnits="userSpaceOnUse"><stop stop-color="#0081C3"/><stop offset="1" stop-color="#025193"/></linearGradient><linearGradient id="s" x1="29.266" y1="74.447" x2="33.203" y2="77.801" gradientUnits="userSpaceOnUse"><stop stop-color="#0081C3"/><stop offset="1" stop-color="#025193"/></linearGradient><linearGradient id="t" x1=".266" y1="74.447" x2="4.202" y2="77.801" gradientUnits="userSpaceOnUse"><stop stop-color="#0081C3"/><stop offset="1" stop-color="#025193"/></linearGradient><linearGradient id="u" x1="116.266" y1="99.447" x2="120.202" y2="102.801" gradientUnits="userSpaceOnUse"><stop stop-color="#0081C3"/><stop offset="1" stop-color="#025193"/></linearGradient><linearGradient id="v" x1="87.266" y1="99.447" x2="91.203" y2="102.801" gradientUnits="userSpaceOnUse"><stop stop-color="#0081C3"/><stop offset="1" stop-color="#025193"/></linearGradient><linearGradient id="w" x1="87.266" y1="124.447" x2="91.203" y2="127.801" gradientUnits="userSpaceOnUse"><stop stop-color="#0081C3"/><stop offset="1" stop-color="#025193"/></linearGradient><linearGradient id="x" x1="116.266" y1="124.447" x2="120.202" y2="127.801" gradientUnits="userSpaceOnUse"><stop stop-color="#0081C3"/><stop offset="1" stop-color="#025193"/></linearGradient><linearGradient id="y" x1="58.266" y1="99.447" x2="62.203" y2="102.801" gradientUnits="userSpaceOnUse"><stop stop-color="#0081C3"/><stop offset="1" stop-color="#025193"/></linearGradient><linearGradient id="z" x1="58.266" y1="124.447" x2="62.203" y2="127.801" gradientUnits="userSpaceOnUse"><stop stop-color="#0081C3"/><stop offset="1" stop-color="#025193"/></linearGradient><linearGradient id="A" x1="29.266" y1="99.447" x2="33.203" y2="102.801" gradientUnits="userSpaceOnUse"><stop stop-color="#0081C3"/><stop offset="1" stop-color="#025193"/></linearGradient><linearGradient id="B" x1="29.266" y1="124.447" x2="33.203" y2="127.801" gradientUnits="userSpaceOnUse"><stop stop-color="#0081C3"/><stop offset="1" stop-color="#025193"/></linearGradient><linearGradient id="C" x1=".266" y1="99.447" x2="4.202" y2="102.801" gradientUnits="userSpaceOnUse"><stop stop-color="#0081C3"/><stop offset="1" stop-color="#025193"/></linearGradient><linearGradient id="D" x1=".266" y1="124.447" x2="4.202" y2="127.801" gradientUnits="userSpaceOnUse"><stop stop-color="#0081C3"/><stop offset="1" stop-color="#025193"/></linearGradient></defs></svg>