<svg width="1102" height="242" viewBox="0 0 1102 242" fill="none" xmlns="http://www.w3.org/2000/svg">
<path fill-rule="evenodd" clip-rule="evenodd" d="M3.1807 103.558C2.09581 103.558 1.25749 103.212 0.665728 102.522C0.0739697 101.832 -0.123283 100.944 0.0739698 99.8592L20.4896 3.84643C20.6869 2.76154 21.18 1.8739 21.969 1.18352C22.8567 0.394506 23.8429 0 24.9278 0H41.497C43.9627 0 45.4914 0.936953 46.0832 2.81085L69.3097 58.2882L80.9969 3.84643C81.1942 2.76154 81.6873 1.8739 82.4763 1.18352C83.3639 0.394506 84.3502 0 85.4351 0H104.223C105.308 0 106.097 0.394506 106.59 1.18352C107.182 1.8739 107.379 2.76154 107.182 3.84643L86.7665 99.7113C86.5693 100.796 86.0269 101.733 85.1392 102.522C84.3502 103.212 83.4132 103.558 82.3284 103.558H65.7591C64.3784 103.558 63.3921 103.311 62.8003 102.818C62.2086 102.226 61.6661 101.536 61.173 100.747L37.6506 47.4886L26.4072 99.8592C26.21 100.944 25.6675 101.832 24.7799 102.522C23.8922 103.212 22.9553 103.558 21.969 103.558H3.1807ZM109.946 103.558C108.861 103.558 108.022 103.212 107.431 102.522C106.839 101.832 106.642 100.944 106.839 99.8592L119.359 40.9793H189.685C190.77 40.9793 191.559 41.3738 192.052 42.1628C192.644 42.8532 192.841 43.7408 192.644 44.8257L189.833 58.2882C189.636 59.3731 189.093 60.31 188.206 61.0991C187.318 61.7894 186.332 62.1346 185.247 62.1346H141.605L137.61 81.3668H185.543C186.628 81.3668 187.417 81.7613 187.91 82.5503C188.502 83.2407 188.699 84.1283 188.502 85.2132L185.395 99.8592C185.198 100.944 184.655 101.832 183.768 102.522C182.88 103.212 181.943 103.558 180.957 103.558H109.946ZM123.354 22.1909L127.255 3.84643C127.452 2.76154 127.994 1.8739 128.882 1.18352C129.77 0.394506 130.756 0 131.841 0H201.668C202.753 0 203.542 0.394506 204.035 1.18352C204.627 1.8739 204.824 2.76154 204.627 3.84643L201.52 18.4924C201.323 19.5773 200.781 20.465 199.893 21.1554C199.005 21.8457 198.019 22.1909 196.934 22.1909H123.354ZM213.892 102.226C214.779 103.114 216.012 103.558 217.59 103.558H232.532C235.392 103.558 237.513 102.276 238.893 99.7113L260.641 58.732L268.038 99.7113C268.136 100.698 268.531 101.585 269.221 102.374C270.01 103.163 271.194 103.558 272.772 103.558H288.009C289.587 103.558 290.968 103.114 292.152 102.226C293.434 101.24 294.371 100.056 294.963 98.6757L329.728 3.6985C329.926 3.10673 330.024 2.66291 330.024 2.36704C330.024 1.67665 329.778 1.13421 329.285 0.739701C328.89 0.246569 328.298 0 327.509 0H307.537C306.058 0 304.875 0.246569 303.987 0.739701C303.198 1.23283 302.606 2.12047 302.212 3.40261L281.204 59.1758L277.654 26.925C277.358 24.2621 275.977 22.9306 273.511 22.9306H262.416C260.049 22.9306 258.175 24.2621 256.794 26.925L239.929 58.732L242.444 3.6985C242.74 1.23283 241.458 0 238.598 0H219.809C218.823 0 217.935 0.345197 217.146 1.03558C216.456 1.72597 216.061 2.51498 215.963 3.40261L212.708 98.6757C212.61 100.056 213.004 101.24 213.892 102.226Z" fill="black" fill-opacity="0.05"/>
<path d="M188.362 241.272C175.935 241.272 166.368 238.609 159.661 233.284C152.955 227.958 149.602 220.265 149.602 210.205C149.602 207.345 149.897 204.287 150.489 201.033C151.969 192.945 153.892 183.921 156.259 173.96C159.316 161.533 165.678 151.917 175.343 145.112C185.008 138.208 196.893 134.756 210.996 134.756C219.676 134.756 227.073 136.038 233.187 138.602C239.302 141.167 243.839 144.569 246.798 148.81C249.855 152.952 251.384 157.341 251.384 161.977C251.384 163.752 251.285 165.034 251.088 165.823C250.989 166.711 250.546 167.5 249.757 168.19C248.968 168.782 248.129 169.078 247.242 169.078H224.311C223.325 169.078 222.585 168.93 222.092 168.634C221.599 168.24 221.204 167.697 220.908 167.007C220.317 164.245 218.887 161.878 216.618 159.906C214.448 157.933 210.996 156.947 206.262 156.947C194.92 156.947 187.77 162.864 184.811 174.7C183.036 182.097 181.211 190.628 179.337 200.293C178.943 202.857 178.746 204.682 178.746 205.767C178.746 214.643 183.677 219.081 193.54 219.081C199.161 219.081 203.945 217.651 207.89 214.791C211.933 211.931 214.547 207.591 215.731 201.772L216.322 199.11H203.008C201.923 199.11 201.085 198.764 200.493 198.074C200 197.285 199.901 196.348 200.197 195.263L202.564 183.724C202.761 182.639 203.304 181.751 204.191 181.061C205.079 180.272 206.065 179.877 207.15 179.877H244.875C245.96 179.877 246.749 180.272 247.242 181.061C247.833 181.751 248.031 182.639 247.833 183.724L244.135 200.885C242.36 209.268 238.858 216.517 233.631 222.632C228.503 228.648 222.043 233.284 214.251 236.538C206.46 239.694 197.83 241.272 188.362 241.272Z" fill="black" fill-opacity="0.05"/>
<path d="M253.996 239.793C252.911 239.793 252.073 239.448 251.481 238.757C250.889 238.067 250.692 237.179 250.889 236.094L271.305 140.082C271.502 138.997 272.045 138.109 272.932 137.419C273.82 136.63 274.806 136.235 275.891 136.235H345.719C346.803 136.235 347.592 136.63 348.086 137.419C348.677 138.109 348.875 138.997 348.677 140.082L345.571 154.728C345.373 155.813 344.831 156.7 343.943 157.391C343.056 158.081 342.069 158.426 340.985 158.426H267.404L263.409 177.215H333.735C334.82 177.215 335.609 177.609 336.102 178.398C336.694 179.088 336.892 179.976 336.694 181.061L333.883 194.523C333.686 195.608 333.144 196.545 332.256 197.334C331.368 198.025 330.382 198.37 329.297 198.37H285.655L281.661 217.602H329.593C330.678 217.602 331.467 217.997 331.96 218.786C332.552 219.476 332.749 220.364 332.552 221.448L329.445 236.094C329.248 237.179 328.706 238.067 327.818 238.757C326.93 239.448 325.993 239.793 325.007 239.793H253.996Z" fill="black" fill-opacity="0.05"/>
<path d="M348.77 239.793C347.685 239.793 346.847 239.448 346.255 238.757C345.663 238.067 345.466 237.179 345.663 236.094L366.079 140.082C366.276 138.997 366.769 138.109 367.558 137.419C368.446 136.63 369.432 136.235 370.517 136.235H387.086C389.552 136.235 391.081 137.172 391.672 139.046L414.899 194.523L426.586 140.082C426.783 138.997 427.276 138.109 428.065 137.419C428.953 136.63 429.939 136.235 431.024 136.235H449.813C450.897 136.235 451.686 136.63 452.18 137.419C452.771 138.109 452.969 138.997 452.771 140.082L432.356 235.947C432.158 237.031 431.616 237.968 430.728 238.757C429.939 239.448 429.002 239.793 427.918 239.793H411.348C409.967 239.793 408.981 239.546 408.389 239.053C407.798 238.461 407.255 237.771 406.762 236.982L383.24 183.724L371.996 236.094C371.799 237.179 371.257 238.067 370.369 238.757C369.481 239.448 368.544 239.793 367.558 239.793H348.77Z" fill="black" fill-opacity="0.05"/>
<path d="M455.535 239.793C454.45 239.793 453.612 239.448 453.02 238.757C452.428 238.067 452.231 237.179 452.428 236.094L472.844 140.082C473.041 138.997 473.583 138.109 474.471 137.419C475.359 136.63 476.345 136.235 477.43 136.235H547.257C548.342 136.235 549.131 136.63 549.624 137.419C550.216 138.109 550.413 138.997 550.216 140.082L547.109 154.728C546.912 155.813 546.37 156.7 545.482 157.391C544.594 158.081 543.608 158.426 542.523 158.426H468.943L464.948 177.215H535.274C536.359 177.215 537.148 177.609 537.641 178.398C538.233 179.088 538.43 179.976 538.233 181.061L535.422 194.523C535.225 195.608 534.682 196.545 533.795 197.334C532.907 198.025 531.921 198.37 530.836 198.37H487.194L483.199 217.602H531.132C532.217 217.602 533.006 217.997 533.499 218.786C534.091 219.476 534.288 220.364 534.091 221.448L530.984 236.094C530.787 237.179 530.244 238.067 529.357 238.757C528.469 239.448 527.532 239.793 526.546 239.793H455.535Z" fill="black" fill-opacity="0.05"/>
<path d="M552.232 239.793C551.246 239.793 550.457 239.448 549.865 238.757C549.372 238.067 549.153 238.914 549.351 237.829L569.689 140.082C569.886 138.997 570.428 138.109 571.316 137.419C572.204 136.63 573.19 136.235 574.275 136.235H614.958C626.202 136.235 634.881 138.454 640.996 142.893C647.11 147.331 650.168 153.692 650.168 161.977C650.168 164.541 649.872 167.253 649.28 170.113C647.899 177.017 645.089 182.886 640.848 187.718C636.607 192.551 631.379 196.299 625.166 198.962L637.445 235.059C637.642 235.749 637.692 236.292 637.593 236.686C637.396 237.574 636.903 238.314 636.114 238.905C635.423 239.497 634.634 239.793 633.747 239.793H612.887C610.125 239.793 608.4 238.461 607.709 235.799L598.241 203.696H556.453L549.351 237.829C550.979 241.329 560.633 240.829 572.499 239.793H552.232ZM605.046 181.949C609.287 181.949 612.739 180.913 615.402 178.842C618.065 176.672 619.791 173.713 620.58 169.965C620.777 169.176 620.876 168.042 620.876 166.563C620.876 163.801 619.988 161.632 618.213 160.054C616.438 158.377 613.775 157.539 610.224 157.539H593.803L588.625 181.949H605.046Z" fill="black" fill-opacity="0.05"/>
<path d="M643.853 239.793C642.965 239.793 642.275 239.546 641.781 239.053C641.288 238.461 641.042 237.771 641.042 236.982C641.042 236.489 641.19 235.947 641.486 235.355L696.075 140.526C697.752 137.665 700.02 136.235 702.88 136.235H726.847C729.805 136.235 731.482 137.665 731.877 140.526L746.227 235.355C746.325 236.736 746.029 237.82 745.339 238.609C744.649 239.398 743.761 239.793 742.676 239.793H723.888C721.225 239.793 719.696 238.609 719.302 236.242L716.935 222.188H678.323L669.742 236.538C668.361 238.708 666.487 239.793 664.12 239.793H643.853ZM689.122 199.997H715.455L710.277 162.273L689.122 199.997Z" fill="black" fill-opacity="0.05"/>
<path d="M771.882 239.793C770.797 239.793 769.958 239.448 769.367 238.757C768.775 238.067 768.578 237.179 768.775 236.094L784.9 160.349H758.863C757.778 160.349 756.94 160.004 756.348 159.314C755.756 158.623 755.559 157.736 755.756 156.651L759.307 140.082C759.504 138.997 760.046 138.109 760.934 137.419C761.822 136.63 762.808 136.235 763.893 136.235H844.224C845.309 136.235 846.147 136.63 846.739 137.419C847.331 138.109 847.528 138.997 847.331 140.082L843.632 156.651C843.435 157.736 842.893 158.623 842.005 159.314C841.216 160.004 840.279 160.349 839.194 160.349H813.157L796.883 236.094C796.686 237.179 796.144 238.067 795.256 238.757C794.467 239.448 793.53 239.793 792.445 239.793H771.882Z" fill="black" fill-opacity="0.05"/>
<path d="M842.573 239.793C841.488 239.793 840.649 239.448 840.057 238.757C839.564 237.968 839.416 237.081 839.614 236.094L860.177 139.934C860.374 138.849 860.868 137.961 861.657 137.271C862.544 136.58 863.531 136.235 864.615 136.235H885.623C886.609 136.235 887.398 136.58 887.99 137.271C888.68 137.961 888.927 138.849 888.73 139.934L868.166 236.094C867.969 237.179 867.426 238.067 866.539 238.757C865.651 239.448 864.714 239.793 863.728 239.793H842.573Z" fill="black" fill-opacity="0.05"/>
<path d="M932.387 241.272C924.694 241.272 917.79 240.04 911.675 237.574C905.659 235.108 900.876 231.459 897.325 226.626C893.775 221.794 891.999 215.876 891.999 208.874C891.999 206.802 892.246 204.189 892.739 201.033C894.416 191.466 896.24 182.935 898.213 175.439C901.566 162.026 907.484 151.917 915.965 145.112C924.546 138.208 936.036 134.756 950.435 134.756C958.03 134.756 964.884 136.038 970.999 138.602C977.114 141.167 981.947 144.964 985.497 149.994C989.048 154.925 990.823 160.892 990.823 167.894C990.823 169.965 990.576 172.48 990.083 175.439C988.702 183.428 986.878 191.959 984.609 201.033C981.256 214.545 975.289 224.654 966.709 231.36C958.227 237.968 946.786 241.272 932.387 241.272ZM934.606 219.081C939.932 219.081 944.419 217.553 948.068 214.495C951.816 211.339 954.479 206.556 956.057 200.145C958.227 191.17 959.953 183.083 961.235 175.883C961.629 173.911 961.827 171.889 961.827 169.818C961.827 161.237 957.339 156.947 948.364 156.947C943.038 156.947 938.502 158.525 934.754 161.681C931.105 164.738 928.491 169.472 926.913 175.883C925.236 182.097 923.461 190.184 921.587 200.145C921.193 202.118 920.995 204.14 920.995 206.211C920.995 214.791 925.532 219.081 934.606 219.081Z" fill="black" fill-opacity="0.05"/>
<path d="M997.161 239.793C996.076 239.793 995.238 239.448 994.646 238.757C994.054 238.067 993.857 237.179 994.054 236.094L1014.47 140.082C1014.67 138.997 1015.16 138.109 1015.95 137.419C1016.84 136.63 1017.82 136.235 1018.91 136.235H1035.48C1037.94 136.235 1039.47 137.172 1040.06 139.046L1063.29 194.523L1074.98 140.082C1075.17 138.997 1075.67 138.109 1076.46 137.419C1077.34 136.63 1078.33 136.235 1079.42 136.235H1098.2C1099.29 136.235 1100.08 136.63 1100.57 137.419C1101.16 138.109 1101.36 138.997 1101.16 140.082L1080.75 235.947C1080.55 237.031 1080.01 237.968 1079.12 238.757C1078.33 239.448 1077.39 239.793 1076.31 239.793H1059.74C1058.36 239.793 1057.37 239.546 1056.78 239.053C1056.19 238.461 1055.65 237.771 1055.15 236.982L1031.63 183.724L1020.39 236.094C1020.19 237.179 1019.65 238.067 1018.76 238.757C1017.87 239.448 1016.94 239.793 1015.95 239.793H997.161Z" fill="black" fill-opacity="0.05"/>
</svg>
