<svg width="13" height="13" viewBox="0 0 13 13" fill="none" xmlns="http://www.w3.org/2000/svg">
<g clip-path="url(#clip0_371:1774)">
<path d="M3.30241 0.20779L2.87361 0.633623C2.7397 0.76764 2.66593 0.945942 2.66593 1.13651C2.66593 1.32696 2.7397 1.50548 2.87361 1.63949L7.73143 6.49709L2.86822 11.3603C2.73431 11.4941 2.66064 11.6726 2.66064 11.8631C2.66064 12.0535 2.73431 12.2321 2.86822 12.3661L3.29437 12.792C3.5715 13.0693 4.02291 13.0693 4.30003 12.792L10.1111 7.00177C10.2449 6.86797 10.3392 6.68966 10.3392 6.49752L10.3392 6.4953C10.3392 6.30473 10.2448 6.12643 10.1111 5.99263L4.31578 0.20779C4.18197 0.0737733 3.99828 0.000210704 3.80782 -5.01448e-08C3.61726 -4.18151e-08 3.43611 0.0737734 3.30241 0.20779Z" fill="#323232"/>
</g>
<defs>
<clipPath id="clip0_371:1774">
<rect width="13" height="13" fill="white" transform="translate(0 13) rotate(-90)"/>
</clipPath>
</defs>
</svg>
