<svg width="13" height="13" viewBox="0 0 13 13" fill="none" xmlns="http://www.w3.org/2000/svg">
<g clip-path="url(#clip0_371:1780)">
<path d="M9.69759 0.20779L10.1264 0.633623C10.2603 0.76764 10.3341 0.945942 10.3341 1.13651C10.3341 1.32696 10.2603 1.50548 10.1264 1.63949L5.26857 6.49709L10.1318 11.3603C10.2657 11.4941 10.3394 11.6726 10.3394 11.8631C10.3394 12.0535 10.2657 12.2321 10.1318 12.3661L9.70563 12.792C9.4285 13.0693 8.97709 13.0693 8.69997 12.792L2.88892 7.00177C2.75511 6.86797 2.66084 6.68966 2.66084 6.49752L2.66084 6.4953C2.66084 6.30473 2.75522 6.12643 2.88892 5.99263L8.68422 0.20779C8.81803 0.0737733 9.00172 0.000210704 9.19218 -5.01448e-08C9.38274 -4.18151e-08 9.56389 0.0737734 9.69759 0.20779Z" fill="#323232"/>
</g>
<defs>
<clipPath id="clip0_371:1780">
<rect width="13" height="13" fill="white" transform="matrix(4.37114e-08 -1 -1 -4.37114e-08 13 13)"/>
</clipPath>
</defs>
</svg>
