<svg width="661" height="233" viewBox="0 0 661 233" fill="none" xmlns="http://www.w3.org/2000/svg">
<path d="M36.0933 93.289C28.5309 93.289 22.0427 92.2578 16.6287 90.1953C11.3007 88.1329 7.26163 85.3829 4.51167 81.9454C1.84763 78.508 0.515619 74.6838 0.515619 70.4729C0.515619 69.7854 0.601556 68.7542 0.773429 67.3792C0.945302 66.6058 1.28905 65.9612 1.80467 65.4456C2.40622 64.93 3.09371 64.6722 3.86714 64.6722H20.367C21.3982 64.6722 22.1716 64.8441 22.6872 65.1878C23.2888 65.5316 23.8903 66.1331 24.4919 66.9925C25.0935 69.2268 26.4684 71.0745 28.6169 72.5354C30.8512 73.9963 33.902 74.7268 37.7691 74.7268C42.6675 74.7268 46.6206 73.9533 49.6283 72.4065C52.6361 70.8596 54.4408 68.7542 55.0423 66.0901C55.1283 65.7464 55.1712 65.2308 55.1712 64.5433C55.1712 62.3949 53.8392 60.7191 51.1752 59.516C48.5112 58.227 43.6128 56.7231 36.48 55.0043C28.1442 53.1997 21.8279 50.4927 17.531 46.8833C13.2342 43.1881 11.0858 38.3756 11.0858 32.446C11.0858 30.3835 11.3436 28.2781 11.8592 26.1297C13.578 18.1376 17.8318 11.8642 24.6208 7.30958C31.4957 2.75494 40.3472 0.477619 51.1752 0.477619C57.7064 0.477619 63.5071 1.63776 68.5773 3.95805C73.6476 6.27834 77.5577 9.24315 80.3077 12.8525C83.1436 16.3759 84.5615 19.8993 84.5615 23.4227C84.5615 24.4539 84.5186 25.1844 84.4326 25.614C84.2607 26.3875 83.874 27.032 83.2725 27.5476C82.7569 28.0632 82.1123 28.321 81.3389 28.321H64.0657C62.1751 28.321 60.886 27.5906 60.1985 26.1297C60.1126 24.1531 59.0813 22.4774 57.1048 21.1024C55.1283 19.7274 52.5502 19.0399 49.3705 19.0399C45.5893 19.0399 42.4526 19.7274 39.9605 21.1024C37.5543 22.4774 36.0504 24.4969 35.4488 27.1609C35.3629 27.5906 35.3199 28.1492 35.3199 28.8367C35.3199 30.8991 36.523 32.6179 38.9292 33.9929C41.4214 35.2819 45.7612 36.6139 51.9486 37.9889C61.5735 39.8795 68.5773 42.5865 72.9601 46.1099C77.4288 49.6333 79.6631 54.3168 79.6631 60.1605C79.6631 62.1371 79.4053 64.2855 78.8897 66.6058C76.9991 75.3713 72.4015 82.0314 65.0969 86.586C57.8782 91.0547 48.2104 93.289 36.0933 93.289ZM107.938 92C106.992 92 106.262 91.6992 105.746 91.0977C105.231 90.4102 105.059 89.6367 105.231 88.7774L119.539 22.0047H96.594C95.6487 22.0047 94.9182 21.7039 94.4026 21.1024C93.9729 20.4149 93.844 19.6415 94.0159 18.7821L96.9807 4.98929C97.1526 4.04398 97.6252 3.27056 98.3986 2.669C99.1721 2.06744 99.9885 1.76667 100.848 1.76667H170.199C171.144 1.76667 171.874 2.06744 172.39 2.669C172.734 3.18462 172.906 3.70024 172.906 4.21586C172.906 4.47367 172.863 4.73148 172.777 4.98929L169.812 18.7821C169.64 19.7274 169.167 20.5008 168.394 21.1024C167.706 21.7039 166.89 22.0047 165.945 22.0047H143.129L128.82 88.7774C128.648 89.7227 128.176 90.4961 127.402 91.0977C126.629 91.6992 125.812 92 124.953 92H107.938ZM151.218 92C150.445 92 149.843 91.7852 149.414 91.3555C148.984 90.8399 148.769 90.2383 148.769 89.5508C148.769 89.1211 148.898 88.6485 149.156 88.1329L196.98 5.376C198.355 2.96978 200.288 1.76667 202.78 1.76667H222.632C225.124 1.76667 226.542 2.96978 226.885 5.376L239.518 88.1329C239.69 89.336 239.475 90.2813 238.874 90.9688C238.272 91.6563 237.499 92 236.553 92H220.956C218.721 92 217.432 90.9688 217.089 88.9063L214.897 76.1447H180.48L172.745 89.293C171.456 91.0977 169.867 92 167.976 92H151.218ZM213.608 57.5824L208.839 23.5516L189.632 57.5824H213.608ZM254.046 92C253.101 92 252.37 91.6992 251.855 91.0977C251.425 90.4102 251.296 89.6367 251.468 88.7774L269.257 4.98929C269.429 4.12992 269.901 3.39946 270.675 2.79791C271.448 2.11041 272.308 1.76667 273.253 1.76667H308.315C318.026 1.76667 325.502 3.70024 330.744 7.56738C335.987 11.4345 338.608 16.9345 338.608 24.0672C338.608 26.2156 338.35 28.5789 337.834 31.157C336.545 37.1725 334.053 42.2857 330.358 46.4966C326.662 50.7075 322.065 53.9301 316.565 56.1645L327.522 87.875C327.608 88.0469 327.651 88.2618 327.651 88.5196C327.651 89.3789 327.307 90.1953 326.619 90.9688C325.932 91.6563 325.159 92 324.299 92H307.155C304.749 92 303.245 90.8399 302.643 88.5196L294.007 60.1605H280.858L274.671 88.7774C274.499 89.7227 274.026 90.4961 273.253 91.0977C272.479 91.6992 271.62 92 270.675 92H254.046ZM299.549 41.856C303.503 41.856 306.682 40.9107 309.088 39.0201C311.581 37.1295 313.213 34.4225 313.987 30.8991C314.159 30.2117 314.245 29.2234 314.245 27.9343C314.245 22.4344 310.893 19.6844 304.19 19.6844H289.366L284.597 41.856H299.549ZM359.831 92C358.885 92 358.155 91.6992 357.639 91.0977C357.124 90.4102 356.952 89.6367 357.124 88.7774L371.432 22.0047H348.487C347.542 22.0047 346.811 21.7039 346.296 21.1024C345.866 20.4149 345.737 19.6415 345.909 18.7821L348.874 4.98929C349.046 4.04398 349.518 3.27056 350.292 2.669C351.065 2.06744 351.881 1.76667 352.741 1.76667H422.092C423.037 1.76667 423.767 2.06744 424.283 2.669C424.627 3.18462 424.799 3.70024 424.799 4.21586C424.799 4.47367 424.756 4.73148 424.67 4.98929L421.705 18.7821C421.533 19.7274 421.06 20.5008 420.287 21.1024C419.599 21.7039 418.783 22.0047 417.838 22.0047H395.022L380.713 88.7774C380.541 89.7227 380.069 90.4961 379.295 91.0977C378.522 91.6992 377.705 92 376.846 92H359.831ZM244.144 231C243.198 231 242.468 230.699 241.952 230.098C241.437 229.41 241.265 228.637 241.437 227.777L255.745 161.005H232.8C231.855 161.005 231.124 160.704 230.609 160.102C230.179 159.415 230.05 158.641 230.222 157.782L233.187 143.989C233.359 143.044 233.831 142.271 234.605 141.669C235.378 141.067 236.194 140.767 237.054 140.767H306.405C307.35 140.767 308.08 141.067 308.596 141.669C308.94 142.185 309.112 142.7 309.112 143.216C309.112 143.474 309.069 143.731 308.983 143.989L306.018 157.782C305.846 158.727 305.373 159.501 304.6 160.102C303.912 160.704 303.096 161.005 302.151 161.005H279.335L265.026 227.777C264.854 228.723 264.382 229.496 263.608 230.098C262.835 230.699 262.018 231 261.159 231H244.144ZM340.181 232.289C329.954 232.289 321.575 229.883 315.044 225.07C308.599 220.172 305.376 213.211 305.376 204.188C305.376 202.297 305.591 199.977 306.021 197.227C307.138 191.04 308.728 183.606 310.79 174.926C316.634 151.294 331.716 139.478 356.036 139.478C362.653 139.478 368.583 140.595 373.825 142.829C379.067 144.978 383.192 148.243 386.2 152.626C389.207 156.923 390.711 162.079 390.711 168.094C390.711 169.899 390.496 172.176 390.067 174.926C388.778 182.575 387.231 190.008 385.426 197.227C382.418 209 377.219 217.809 369.829 223.652C362.438 229.41 352.556 232.289 340.181 232.289ZM341.985 213.727C346.798 213.727 350.88 212.309 354.231 209.473C357.669 206.637 360.118 202.297 361.579 196.454C363.555 188.375 365.059 181.329 366.091 175.313C366.434 173.508 366.606 171.661 366.606 169.77C366.606 161.95 362.524 158.04 354.36 158.04C349.548 158.04 345.423 159.458 341.985 162.294C338.634 165.13 336.228 169.469 334.767 175.313C333.22 181.071 331.673 188.118 330.126 196.454C329.782 198.172 329.61 199.977 329.61 201.868C329.61 209.774 333.735 213.727 341.985 213.727ZM396.63 231C395.685 231 394.954 230.699 394.438 230.098C394.009 229.41 393.88 228.637 394.052 227.777L411.841 143.989C412.013 143.044 412.485 142.271 413.259 141.669C414.032 141.067 414.848 140.767 415.708 140.767H447.161C453.864 140.767 459.879 141.884 465.207 144.118C470.621 146.267 474.875 149.489 477.969 153.786C481.148 158.083 482.738 163.196 482.738 169.126C482.738 171.102 482.523 173.38 482.094 175.958C480.891 182.919 479.516 189.493 477.969 195.68C474.961 207.969 469.977 216.949 463.016 222.621C456.055 228.207 446 231 432.852 231H396.63ZM434.012 212.438C439.684 212.438 444.153 211.106 447.418 208.442C450.684 205.692 453.047 201.352 454.508 195.422C456.313 187.774 457.688 181.372 458.633 176.215C458.977 173.809 459.149 172.176 459.149 171.317C459.149 167.192 457.946 164.184 455.539 162.294C453.133 160.317 449.524 159.329 444.711 159.329H431.821L420.477 212.438H434.012ZM478.767 231C477.994 231 477.392 230.785 476.963 230.355C476.533 229.84 476.318 229.238 476.318 228.551C476.318 228.121 476.447 227.648 476.705 227.133L524.529 144.376C525.904 141.97 527.837 140.767 530.329 140.767H550.181C552.673 140.767 554.091 141.97 554.434 144.376L567.067 227.133C567.239 228.336 567.024 229.281 566.423 229.969C565.821 230.656 565.048 231 564.102 231H548.505C546.271 231 544.981 229.969 544.638 227.906L542.446 215.145H508.029L500.294 228.293C499.005 230.098 497.416 231 495.525 231H478.767ZM541.157 196.582L536.388 162.552L517.181 196.582H541.157ZM591.277 231C590.332 231 589.601 230.699 589.086 230.098C588.656 229.41 588.527 228.637 588.699 227.777L594.5 200.063L576.324 144.892C576.238 144.548 576.195 144.204 576.195 143.86C576.195 143.259 576.41 142.657 576.84 142.056C577.527 141.196 578.43 140.767 579.547 140.767H594.757C596.562 140.767 597.851 141.669 598.625 143.474L609.968 176.602L635.362 143.474C635.792 142.786 636.437 142.185 637.296 141.669C638.241 141.067 639.273 140.767 640.39 140.767H657.792C658.565 140.767 659.167 140.982 659.597 141.411C660.026 141.841 660.241 142.356 660.241 142.958C660.241 143.56 659.983 144.204 659.468 144.892L617.703 200.063L611.773 227.777C611.601 228.723 611.128 229.496 610.355 230.098C609.667 230.699 608.851 231 607.906 231H591.277Z" fill="white" fill-opacity="0.12"/>
</svg>
