<svg width="33" height="33" viewBox="0 0 33 33" fill="none" xmlns="http://www.w3.org/2000/svg">
<path d="M16.5 0C7.38727 0 0 7.38727 0 16.5C0 25.6127 7.38727 33 16.5 33C25.6127 33 33 25.6127 33 16.5C33 7.38727 25.6127 0 16.5 0ZM22.7948 8.40276L20.5127 8.40378C18.7231 8.40378 18.377 9.25418 18.377 10.5019V13.2533H22.6446L22.6426 17.5628H18.3774V28.6217H13.9262V17.5628H10.2052V13.2533H13.9262V10.0752C13.9262 6.38698 16.1796 4.37828 19.4695 4.37828L22.7952 4.38335V8.40276H22.7948Z" fill="url(#paint0_linear)"/>
<defs>
<linearGradient id="paint0_linear" x1="3.96047e-07" y1="12.1579" x2="33" y2="27.3553" gradientUnits="userSpaceOnUse">
<stop stop-color="#F0891A"/>
<stop offset="1" stop-color="#EAC632"/>
</linearGradient>
</defs>
</svg>
