<svg width="14" height="14" viewBox="0 0 14 14" fill="none" xmlns="http://www.w3.org/2000/svg">
<g clip-path="url(#clip0_371:1752)">
<path d="M13.9866 4.11604C13.9538 3.37216 13.8335 2.86076 13.6612 2.41762C13.4834 1.94723 13.2099 1.5261 12.8516 1.17601C12.5015 0.820473 12.0776 0.544204 11.6127 0.369213C11.167 0.196892 10.6582 0.0765988 9.91438 0.0438013C9.16495 0.00822609 8.92703 0 7.02627 0C5.12551 0 4.88759 0.00822609 4.14094 0.0410236C3.39707 0.0738212 2.88566 0.194221 2.44263 0.366435C1.97214 0.544204 1.551 0.817695 1.20091 1.17601C0.845375 1.5261 0.569213 1.95001 0.394115 2.41495C0.221794 2.86076 0.101501 3.36939 0.0687036 4.11326C0.0331284 4.86269 0.0249023 5.10061 0.0249023 7.00137C0.0249023 8.90213 0.0331284 9.14005 0.065926 9.8867C0.0987235 10.6306 0.219124 11.142 0.391444 11.5851C0.569213 12.0555 0.845375 12.4766 1.20091 12.8267C1.551 13.1823 1.97491 13.4585 2.43985 13.6335C2.88566 13.8058 3.39429 13.9261 4.13827 13.9589C4.88481 13.9918 5.12284 14 7.0236 14C8.92436 14 9.16228 13.9918 9.90893 13.9589C10.6528 13.9261 11.1642 13.8058 11.6072 13.6335C12.5481 13.2698 13.292 12.5259 13.6558 11.5851C13.828 11.1393 13.9484 10.6306 13.9812 9.8867C14.014 9.14005 14.0222 8.90213 14.0222 7.00137C14.0222 5.10061 14.0194 4.86269 13.9866 4.11604ZM12.7259 9.832C12.6958 10.5157 12.5809 10.8849 12.4852 11.1311C12.2499 11.741 11.7659 12.225 11.156 12.4603C10.9098 12.556 10.538 12.6709 9.8569 12.7009C9.11847 12.7338 8.89701 12.7419 7.02905 12.7419C5.16108 12.7419 4.93684 12.7338 4.20109 12.7009C3.51736 12.6709 3.14815 12.556 2.90201 12.4603C2.59849 12.3481 2.32223 12.1703 2.09798 11.9379C1.86552 11.7109 1.68775 11.4374 1.57557 11.1339C1.47985 10.8877 1.36501 10.5157 1.33499 9.83478C1.30208 9.09635 1.29396 8.87478 1.29396 7.00682C1.29396 5.13885 1.30208 4.91461 1.33499 4.17896C1.36501 3.49524 1.47985 3.12602 1.57557 2.87988C1.68775 2.57626 1.86552 2.3001 2.10076 2.07575C2.32767 1.84329 2.60117 1.66552 2.90478 1.55345C3.15092 1.45773 3.52292 1.34288 4.20386 1.31276C4.94229 1.27996 5.16386 1.27173 7.03172 1.27173C8.90246 1.27173 9.12392 1.27996 9.85968 1.31276C10.5434 1.34288 10.9126 1.45773 11.1588 1.55345C11.4623 1.66552 11.7385 1.84329 11.9628 2.07575C12.1952 2.30277 12.373 2.57626 12.4852 2.87988C12.5809 3.12602 12.6958 3.49791 12.7259 4.17896C12.7587 4.91739 12.7669 5.13885 12.7669 7.00682C12.7669 8.87478 12.7587 9.09357 12.7259 9.832Z" fill="#323232"/>
<path d="M7.02609 3.40527C5.04061 3.40527 3.42969 5.01609 3.42969 7.00168C3.42969 8.98726 5.04061 10.5981 7.02609 10.5981C9.01168 10.5981 10.6225 8.98726 10.6225 7.00168C10.6225 5.01609 9.01168 3.40527 7.02609 3.40527ZM7.02609 9.33458C5.73801 9.33458 4.69319 8.28986 4.69319 7.00168C4.69319 5.71349 5.73801 4.66878 7.02609 4.66878C8.31428 4.66878 9.35899 5.71349 9.35899 7.00168C9.35899 8.28986 8.31428 9.33458 7.02609 9.33458Z" fill="#323232"/>
<path d="M11.6041 3.26245C11.6041 3.7261 11.2282 4.10204 10.7644 4.10204C10.3007 4.10204 9.9248 3.7261 9.9248 3.26245C9.9248 2.79869 10.3007 2.42285 10.7644 2.42285C11.2282 2.42285 11.6041 2.79869 11.6041 3.26245Z" fill="#323232"/>
</g>
<defs>
<clipPath id="clip0_371:1752">
<rect width="14" height="14" fill="white"/>
</clipPath>
</defs>
</svg>
