<svg width="345" height="256" viewBox="0 0 345 256" fill="none" xmlns="http://www.w3.org/2000/svg">
<g opacity="0.05">
<path d="M206.854 10.0029C207.194 7.24263 208.533 4.70193 210.619 2.85948C212.704 1.01702 215.392 0 218.176 0C220.96 0 223.648 1.01702 225.734 2.85948C227.819 4.70193 229.158 7.24263 229.499 10.0029C237.071 48.4645 245.185 86.7409 252.457 125.202C250.332 135.587 251.202 146.2 251.031 156.713C251.031 174.889 250.96 193.052 251.031 211.228C244.372 207.411 244.472 199.12 243.003 192.525C234.376 150.587 226.29 108.479 217.463 66.6412C211.959 87.268 207.923 108.365 202.719 129.106C201.425 125.19 200.845 121.075 201.007 116.955C201.364 100.772 201.007 84.6042 201.193 68.436C201.121 58.7637 201.877 49.0343 200.237 39.4474C202.205 29.5756 204.658 19.8035 206.854 10.0029Z" fill="black"/>
<path d="M165.415 190.915C176.823 140.392 188.431 89.8938 200.238 39.4189C201.878 49.0059 201.122 58.7352 201.194 68.4076C200.98 84.5757 201.365 100.744 201.008 116.926C200.862 121.044 201.456 125.155 202.762 129.063C193.964 168.507 184.738 207.852 175.668 247.225C173.686 256.043 160.439 257.938 155.519 250.744C154.434 249.075 153.697 247.205 153.351 245.245C144.187 201.561 134.994 157.923 125.773 114.334C118.771 125.943 112.04 137.724 104.796 149.177C103.299 135.388 105.438 121.456 103.256 107.724C109.531 97.2823 115.591 86.7124 122.079 76.3848C127.256 69.1198 139.819 71.7124 141.901 80.3164C149.872 117.168 157.33 154.134 165.415 190.915Z" fill="black"/>
<path d="M286.482 89.4333C290.646 80.1883 306.218 82.4248 307.558 92.496C312.421 132.809 316.984 173.151 321.676 213.479C335.294 195.06 348.441 176.285 362.045 157.838C364.427 154.319 368.805 153.28 372.84 153.394C369.632 157.525 365.026 160.673 362.616 165.374C361.638 175.095 361.882 184.901 363.343 194.562V194.932C349.611 213.451 336.335 232.382 322.674 250.986C319.494 255.73 312.563 255.929 307.815 253.835C301.569 250.302 302.111 242.439 301.398 236.3C297.519 205.174 294.411 173.963 290.304 142.881C282.518 163.688 274.642 184.467 266.675 205.217C264.493 211.471 256.779 213.607 250.989 211.214C250.989 193.037 250.989 174.875 250.989 156.698C251.103 146.186 250.233 135.573 252.415 125.188C255.267 136.584 256.993 148.223 259.645 159.661C268.743 136.285 277.27 112.681 286.482 89.4333Z" fill="black"/>
<path d="M76.6901 152.439C85.3316 137.396 94.4009 122.524 103.299 107.724C105.481 121.456 103.299 135.387 104.839 149.177C101.673 155.274 97.809 160.986 94.4009 166.969C92.5899 170.174 89.7664 173.578 85.7594 173.707C74.3514 173.963 62.9435 173.707 51.5356 173.806C51.5356 166.684 51.4357 159.561 51.4072 152.439H76.6901Z" fill="black"/>
<path d="M0.156838 152.439H51.35C51.35 159.562 51.4498 166.684 51.4783 173.807H0C0.0285199 166.684 0.0807854 159.562 0.156838 152.439Z" fill="black"/>
</g>
</svg>
