<svg width="345" height="256" fill="none" xmlns="http://www.w3.org/2000/svg"><g opacity=".05" fill="#000"><path d="M206.854 10.003a11.388 11.388 0 0 1 3.765-7.144 11.413 11.413 0 0 1 18.88 7.144c7.572 38.462 15.686 76.738 22.958 115.199-2.125 10.385-1.255 20.998-1.426 31.511 0 18.176-.071 36.339 0 54.515-6.659-3.817-6.559-12.108-8.028-18.703-8.627-41.938-16.713-84.046-25.54-125.884-5.504 20.627-9.54 41.724-14.744 62.465a34.415 34.415 0 0 1-1.712-12.151c.357-16.183 0-32.35.186-48.519-.072-9.672.684-19.402-.956-28.989 1.968-9.871 4.421-19.644 6.617-29.444Z"/><path d="M165.415 190.915a20154.908 20154.908 0 0 1 34.823-151.496c1.64 9.587.884 19.316.956 28.989-.214 16.168.171 32.336-.186 48.518a34.443 34.443 0 0 0 1.754 12.137c-8.798 39.444-18.024 78.789-27.094 118.162-1.982 8.818-15.229 10.713-20.149 3.519a14.813 14.813 0 0 1-2.168-5.499 79168.863 79168.863 0 0 0-27.578-130.911c-7.002 11.609-13.733 23.39-20.977 34.843-1.497-13.789.642-27.721-1.54-41.453 6.275-10.442 12.335-21.012 18.823-31.34 5.177-7.264 17.74-4.672 19.822 3.932 7.971 36.852 15.429 73.818 23.514 110.599ZM286.482 89.433c4.164-9.245 19.736-7.008 21.076 3.063 4.863 40.313 9.426 80.655 14.118 120.983 13.618-18.419 26.765-37.194 40.369-55.641 2.382-3.519 6.76-4.558 10.795-4.444-3.208 4.131-7.814 7.279-10.224 11.98a116.927 116.927 0 0 0 .727 29.188v.37c-13.732 18.519-27.008 37.45-40.669 56.054-3.18 4.744-10.111 4.943-14.859 2.849-6.246-3.533-5.704-11.396-6.417-17.535-3.879-31.126-6.987-62.337-11.094-93.419a7819.256 7819.256 0 0 1-23.629 62.336c-2.182 6.254-9.896 8.39-15.686 5.997v-54.516c.114-10.512-.756-21.125 1.426-31.51 2.852 11.396 4.578 23.035 7.23 34.473 9.098-23.376 17.625-46.98 26.837-70.228Z"/><path d="M76.69 152.439c8.642-15.043 17.71-29.915 26.609-44.715 2.182 13.732 0 27.663 1.54 41.453-3.166 6.097-7.03 11.809-10.438 17.792-1.811 3.205-4.635 6.609-8.642 6.738-11.408.256-22.816 0-34.223.099 0-7.122-.1-14.245-.129-21.367H76.69ZM.157 152.439H51.35c0 7.123.1 14.245.128 21.368H0c.029-7.123.08-14.245.157-21.368Z"/></g></svg>