<svg width="33" height="33" fill="none" xmlns="http://www.w3.org/2000/svg"><path d="M16.564 19.465c-1.599 0-2.9-1.301-2.9-2.9 0-1.6 1.301-2.9 2.9-2.9 1.6 0 2.9 1.3 2.9 2.9 0 1.599-1.3 2.9-2.9 2.9Z" fill="url(#a)"/><path d="M16.436 33C7.373 33 0 25.627 0 16.564 0 7.502 7.373 0 16.436 0 25.498 0 33 7.502 33 16.564 33 25.627 25.498 33 16.436 33Zm6.896-21.27a3.86 3.86 0 0 0-3.16 1.65c-.886-1.003-2.167-1.65-3.608-1.65a4.84 4.84 0 0 0-4.834 4.834 4.84 4.84 0 0 0 4.834 4.834c1.093 0 2.09-.378 2.9-.991v.025a.966.966 0 1 0 1.934 0v-4.834c0-1.066.868-1.934 1.934-1.934 1.066 0 1.934.868 1.934 1.934 0 6.47-4.282 9.668-8.701 9.668-4.799 0-8.702-3.903-8.702-8.701 0-4.799 3.903-8.702 8.701-8.702 1.934 0 3.763.62 5.29 1.792 1.02.779 2.187-.758 1.178-1.533a10.53 10.53 0 0 0-6.468-2.192C10.7 5.93 5.93 10.7 5.93 16.564c0 5.864 4.77 10.635 10.634 10.635 5.343 0 10.635-3.94 10.635-11.601a3.871 3.871 0 0 0-3.867-3.868Z" fill="url(#b)"/><defs><linearGradient id="a" x1="13.664" y1="17.328" x2="19.465" y2="14.656" gradientUnits="userSpaceOnUse"><stop stop-color="#F0891A"/><stop offset="1" stop-color="#EAC632"/></linearGradient><linearGradient id="b" x1="0" y1="20.842" x2="33" y2="5.645" gradientUnits="userSpaceOnUse"><stop stop-color="#F0891A"/><stop offset="1" stop-color="#EAC632"/></linearGradient></defs></svg>