<svg width="1149" height="94" viewBox="0 0 1149 94" fill="none" xmlns="http://www.w3.org/2000/svg">
<path fill-rule="evenodd" clip-rule="evenodd" d="M349.633 93.2721C338.751 93.2721 330.374 90.9403 324.501 86.2767C318.628 81.6131 315.692 74.8768 315.692 66.0678C315.692 63.5632 315.951 60.886 316.469 58.036C317.765 50.9542 319.449 43.052 321.522 34.3293C324.199 23.4476 329.769 15.0272 338.233 9.06812C346.696 3.02271 357.103 0 369.453 0C377.053 0 383.53 1.12272 388.885 3.36816C394.239 5.6136 398.212 8.59313 400.803 12.3067C403.48 15.934 404.819 19.7771 404.819 23.8362C404.819 25.3907 404.732 26.5135 404.56 27.2044C404.473 27.9816 404.085 28.6725 403.394 29.2771C402.703 29.7953 401.969 30.0544 401.192 30.0544H381.112C380.249 30.0544 379.601 29.9248 379.169 29.6657C378.737 29.3203 378.392 28.8453 378.133 28.2407C377.614 25.8226 376.362 23.7498 374.376 22.0226C372.476 20.2953 369.453 19.4317 365.308 19.4317C355.376 19.4317 349.115 24.6135 346.524 34.9771C344.969 41.4543 343.371 48.9247 341.731 57.3883C341.385 59.6337 341.212 61.2314 341.212 62.1814C341.212 69.9541 345.531 73.8404 354.167 73.8404C359.09 73.8404 363.278 72.5882 366.733 70.0836C370.274 67.5791 372.562 63.7791 373.599 58.6837L374.117 56.3519H362.458C361.508 56.3519 360.774 56.0496 360.255 55.4451C359.824 54.7542 359.737 53.9337 359.996 52.9837L362.069 42.8793C362.242 41.9293 362.717 41.152 363.494 40.5475C364.271 39.8566 365.135 39.5111 366.085 39.5111H399.119C400.069 39.5111 400.76 39.8566 401.192 40.5475C401.71 41.152 401.882 41.9293 401.71 42.8793L398.471 57.9064C396.917 65.2473 393.851 71.595 389.273 76.9495C384.783 82.2177 379.126 86.2767 372.303 89.1267C365.48 91.8903 357.924 93.2721 349.633 93.2721ZM2.78521 91.9767C1.83522 91.9767 1.10113 91.6744 0.582951 91.0699C0.0647722 90.4653 -0.107954 89.6881 0.0647723 88.7381L17.9419 4.66361C18.1147 3.71361 18.5465 2.93634 19.2374 2.3318C20.0146 1.6409 20.8783 1.29544 21.8283 1.29544H36.3373C38.4963 1.29544 39.835 2.1159 40.3531 3.75679L60.6917 52.336L70.9257 4.66361C71.0984 3.71361 71.5302 2.93634 72.2211 2.3318C72.9984 1.6409 73.862 1.29544 74.812 1.29544H91.2642C92.2142 1.29544 92.9051 1.6409 93.3369 2.3318C93.8551 2.93634 94.0278 3.71361 93.8551 4.66361L75.9779 88.6085C75.8052 89.5585 75.3302 90.379 74.5529 91.0699C73.862 91.6744 73.0416 91.9767 72.0916 91.9767H57.5826C56.3735 91.9767 55.5099 91.7608 54.9917 91.329C54.4735 90.8108 53.9985 90.2062 53.5667 89.5153L32.9691 42.8793L23.1237 88.7381C22.951 89.6881 22.476 90.4653 21.6987 91.0699C20.9215 91.6744 20.101 91.9767 19.2374 91.9767H2.78521ZM96.2749 91.9767C95.3249 91.9767 94.5908 91.6744 94.0727 91.0699C93.5545 90.4653 93.3818 89.6881 93.5545 88.7381L104.518 37.1793H166.099C167.049 37.1793 167.74 37.5248 168.172 38.2157C168.69 38.8202 168.863 39.5975 168.69 40.5475L166.229 52.336C166.056 53.286 165.581 54.1065 164.804 54.7974C164.027 55.4019 163.163 55.7042 162.213 55.7042H123.997L120.5 72.545H162.472C163.422 72.545 164.113 72.8904 164.545 73.5813C165.063 74.1859 165.236 74.9632 165.063 75.9131L162.343 88.7381C162.17 89.6881 161.695 90.4653 160.918 91.0699C160.14 91.6744 159.32 91.9767 158.456 91.9767H96.2749ZM108.016 20.7271L111.432 4.66361C111.604 3.71361 112.079 2.93634 112.857 2.3318C113.634 1.6409 114.498 1.29544 115.448 1.29544H176.593C177.543 1.29544 178.233 1.6409 178.665 2.3318C179.183 2.93634 179.356 3.71361 179.183 4.66361L176.463 17.4885C176.29 18.4385 175.815 19.2158 175.038 19.8203C174.261 20.4249 173.397 20.7271 172.447 20.7271H108.016ZM187.296 90.8108C188.073 91.5881 189.153 91.9767 190.535 91.9767H203.619C206.123 91.9767 207.98 90.854 209.189 88.6085L228.232 52.7247L234.71 88.6085C234.796 89.4722 235.141 90.2494 235.746 90.9403C236.437 91.6312 237.473 91.9767 238.855 91.9767H252.198C253.58 91.9767 254.789 91.5881 255.825 90.8108C256.948 89.9472 257.768 88.9108 258.287 87.7017L288.73 4.53407C288.902 4.01588 288.989 3.62725 288.989 3.36816C288.989 2.76362 288.773 2.28862 288.341 1.94317C287.996 1.51136 287.477 1.29544 286.786 1.29544H269.298C268.003 1.29544 266.966 1.51136 266.189 1.94317C265.498 2.37499 264.98 3.15225 264.634 4.27497L246.239 53.1133L243.13 24.8726C242.871 22.5408 241.662 21.3749 239.503 21.3749H229.787C227.714 21.3749 226.073 22.5408 224.864 24.8726L210.096 52.7247L212.298 4.53407C212.557 2.37499 211.435 1.29544 208.93 1.29544H192.478C191.614 1.29544 190.837 1.59772 190.146 2.20226C189.542 2.8068 189.196 3.49771 189.11 4.27497L186.26 87.7017C186.173 88.9108 186.519 89.9472 187.296 90.8108ZM404.904 91.0699C405.422 91.6744 406.156 91.9767 407.106 91.9767H469.288C470.151 91.9767 470.972 91.6744 471.749 91.0699C472.526 90.4653 473.001 89.6881 473.174 88.7381L475.894 75.9131C476.067 74.9632 475.894 74.1859 475.376 73.5813C474.944 72.8904 474.253 72.545 473.303 72.545H431.331L434.829 55.7042H473.044C473.994 55.7042 474.858 55.4019 475.635 54.7974C476.412 54.1065 476.887 53.286 477.06 52.336L479.522 40.5475C479.694 39.5975 479.522 38.8202 479.003 38.2157C478.572 37.5248 477.881 37.1793 476.931 37.1793H415.349L404.386 88.7381C404.213 89.6881 404.386 90.4653 404.904 91.0699ZM422.263 4.66361L418.847 20.7271H483.278C484.228 20.7271 485.092 20.4249 485.869 19.8203C486.647 19.2158 487.121 18.4385 487.294 17.4885L490.015 4.66361C490.187 3.71361 490.015 2.93634 489.496 2.3318C489.065 1.6409 488.374 1.29544 487.424 1.29544H426.279C425.329 1.29544 424.465 1.6409 423.688 2.3318C422.911 2.93634 422.436 3.71361 422.263 4.66361ZM490.096 91.9767C489.146 91.9767 488.412 91.6744 487.893 91.0699C487.375 90.4653 487.202 89.6881 487.375 88.7381L505.252 4.66361C505.425 3.71361 505.857 2.93634 506.548 2.3318C507.325 1.6409 508.189 1.29544 509.139 1.29544H523.648C525.807 1.29544 527.145 2.1159 527.664 3.75679L548.002 52.336L558.236 4.66361C558.409 3.71361 558.841 2.93634 559.532 2.3318C560.309 1.6409 561.172 1.29544 562.122 1.29544H578.575C579.525 1.29544 580.216 1.6409 580.647 2.3318C581.165 2.93634 581.338 3.71361 581.166 4.66361L563.288 88.6085C563.116 89.5585 562.641 90.379 561.863 91.0699C561.172 91.6744 560.352 91.9767 559.402 91.9767H544.893C543.684 91.9767 542.82 91.7608 542.302 91.329C541.784 90.8108 541.309 90.2062 540.877 89.5153L520.28 42.8793L510.434 88.7381C510.261 89.6881 509.786 90.4653 509.009 91.0699C508.232 91.6744 507.411 91.9767 506.548 91.9767H490.096ZM581.383 91.0699C581.901 91.6744 582.635 91.9767 583.585 91.9767H645.767C646.63 91.9767 647.451 91.6744 648.228 91.0699C649.005 90.4653 649.48 89.6881 649.653 88.7381L652.374 75.9131C652.546 74.9632 652.374 74.1859 651.855 73.5813C651.424 72.8904 650.733 72.545 649.783 72.545H607.81L611.308 55.7042H649.524C650.474 55.7042 651.337 55.4019 652.114 54.7974C652.892 54.1065 653.367 53.286 653.539 52.336L656.001 40.5475C656.174 39.5975 656.001 38.8202 655.483 38.2157C655.051 37.5248 654.36 37.1793 653.41 37.1793H591.828L580.865 88.7381C580.692 89.6881 580.865 90.4653 581.383 91.0699ZM598.742 4.66361L595.326 20.7271H659.758C660.708 20.7271 661.571 20.4249 662.349 19.8203C663.126 19.2158 663.601 18.4385 663.773 17.4885L666.494 4.66361C666.667 3.71361 666.494 2.93634 665.976 2.3318C665.544 1.6409 664.853 1.29544 663.903 1.29544H602.758C601.808 1.29544 600.944 1.6409 600.167 2.3318C599.39 2.93634 598.915 3.71361 598.742 4.66361ZM671.973 60.2822L683.545 4.66361C683.718 3.71361 684.193 2.93634 684.97 2.3318C685.747 1.6409 686.611 1.29544 687.561 1.29544H723.186C733.031 1.29544 740.631 3.23862 745.986 7.12496C751.34 11.0113 754.017 16.5817 754.017 23.8362C754.017 26.0817 753.758 28.4566 753.24 30.9612C752.031 37.0066 749.57 42.1452 745.856 46.377C742.143 50.6088 737.565 53.8906 732.124 56.2224L742.877 87.8312C743.049 88.4358 743.093 88.9108 743.006 89.2562C742.833 90.0335 742.402 90.6812 741.711 91.1994C741.106 91.7176 740.415 91.9767 739.638 91.9767H721.372C718.954 91.9767 717.443 90.8108 716.838 88.479L708.547 60.3678H682.239L671.973 60.2822ZM714.506 41.3247C718.22 41.3247 721.243 40.4179 723.575 38.6043C725.906 36.7043 727.418 34.1134 728.109 30.8316C728.281 30.1407 728.368 29.1475 728.368 27.8521C728.368 25.4339 727.59 23.5339 726.036 22.1521C724.481 20.684 722.149 19.9499 719.04 19.9499H704.661L700.127 41.3247H714.506ZM746.674 91.329C747.106 91.7608 747.71 91.9767 748.488 91.9767H766.235C768.308 91.9767 769.949 91.0267 771.158 89.1267L778.671 76.5609H812.483L814.555 88.8676C814.901 90.9403 816.239 91.9767 818.571 91.9767H835.023C835.973 91.9767 836.751 91.6312 837.355 90.9403C837.96 90.2494 838.219 89.2994 838.132 88.0903L825.567 5.05225C825.221 2.54771 823.753 1.29544 821.162 1.29544H800.176C797.671 1.29544 795.685 2.54771 794.217 5.05225L746.415 88.0903C746.156 88.6085 746.026 89.0835 746.026 89.5153C746.026 90.2062 746.242 90.8108 746.674 91.329ZM811.187 57.1292H788.128L806.653 24.0953L811.187 57.1292ZM860.597 91.9767C859.647 91.9767 858.913 91.6744 858.395 91.0699C857.877 90.4653 857.704 89.6881 857.877 88.7381L871.997 22.4112H849.197C848.247 22.4112 847.513 22.109 846.995 21.5044C846.477 20.8999 846.304 20.1226 846.477 19.1726L849.586 4.66361C849.759 3.71361 850.234 2.93634 851.011 2.3318C851.788 1.6409 852.652 1.29544 853.602 1.29544H923.945C924.895 1.29544 925.629 1.6409 926.147 2.3318C926.665 2.93634 926.838 3.71361 926.665 4.66361L923.426 19.1726C923.254 20.1226 922.779 20.8999 922.001 21.5044C921.31 22.109 920.49 22.4112 919.54 22.4112H896.74L882.49 88.7381C882.318 89.6881 881.843 90.4653 881.065 91.0699C880.374 91.6744 879.554 91.9767 878.604 91.9767H860.597ZM920.296 91.0699C920.814 91.6744 921.548 91.9767 922.498 91.9767H941.023C941.887 91.9767 942.707 91.6744 943.485 91.0699C944.262 90.4653 944.737 89.6881 944.91 88.7381L962.916 4.53407C963.089 3.58407 962.873 2.8068 962.269 2.20226C961.75 1.59772 961.059 1.29544 960.196 1.29544H941.801C940.851 1.29544 939.987 1.59772 939.21 2.20226C938.519 2.8068 938.087 3.58407 937.914 4.53407L919.907 88.7381C919.735 89.6017 919.864 90.379 920.296 91.0699ZM1001.15 93.2721C994.409 93.2721 988.363 92.1926 983.009 90.0335C977.741 87.8744 973.552 84.679 970.443 80.4472C967.334 76.2154 965.779 71.0336 965.779 64.9019C965.779 63.0882 965.995 60.7996 966.427 58.036C967.895 49.6588 969.493 42.1884 971.22 35.6248C974.157 23.8794 979.338 15.0272 986.766 9.06812C994.279 3.02271 1004.34 0 1016.95 0C1023.6 0 1029.6 1.12272 1034.96 3.36816C1040.31 5.6136 1044.54 8.93858 1047.65 13.3431C1050.76 17.6612 1052.32 22.8862 1052.32 29.018C1052.32 30.8316 1052.1 33.0339 1051.67 35.6248C1050.46 42.6202 1048.86 50.0906 1046.87 58.036C1043.94 69.8677 1038.71 78.7199 1031.2 84.5926C1023.77 90.379 1013.75 93.2721 1001.15 93.2721ZM1003.09 73.8404C1007.75 73.8404 1011.68 72.5018 1014.88 69.8245C1018.16 67.0609 1020.49 62.8723 1021.87 57.2587C1023.77 49.3997 1025.28 42.3179 1026.41 36.0134C1026.75 34.2861 1026.92 32.5157 1026.92 30.7021C1026.92 23.1885 1022.99 19.4317 1015.14 19.4317C1010.47 19.4317 1006.5 20.8135 1003.22 23.5771C1000.02 26.2544 997.734 30.3998 996.352 36.0134C994.884 41.4543 993.329 48.536 991.688 57.2587C991.343 58.986 991.17 60.7564 991.17 62.57C991.17 70.0836 995.143 73.8404 1003.09 73.8404ZM1055.66 91.0699C1056.18 91.6744 1056.92 91.9767 1057.87 91.9767H1074.32C1075.18 91.9767 1076 91.6744 1076.78 91.0699C1077.56 90.4653 1078.03 89.6881 1078.2 88.7381L1088.05 42.8793L1108.65 89.5153C1109.08 90.2062 1109.55 90.8108 1110.07 91.329C1110.59 91.7608 1111.45 91.9767 1112.66 91.9767H1127.17C1128.12 91.9767 1128.94 91.6744 1129.63 91.0699C1130.41 90.379 1130.89 89.5585 1131.06 88.6085L1148.94 4.66361C1149.11 3.71361 1148.94 2.93634 1148.42 2.3318C1147.99 1.6409 1147.29 1.29544 1146.34 1.29544H1129.89C1128.94 1.29544 1128.08 1.6409 1127.3 2.3318C1126.61 2.93634 1126.18 3.71361 1126.01 4.66361L1115.77 52.336L1095.43 3.75679C1094.92 2.1159 1093.58 1.29544 1091.42 1.29544H1076.91C1075.96 1.29544 1075.09 1.6409 1074.32 2.3318C1073.63 2.93634 1073.19 3.71361 1073.02 4.66361L1055.14 88.7381C1054.97 89.6881 1055.14 90.4653 1055.66 91.0699Z" fill="white" fill-opacity="0.12"/>
</svg>
