<svg width="33" height="33" fill="none" xmlns="http://www.w3.org/2000/svg"><path d="M16.5 7.219c-3.625 0-5.79 2.266-5.79 6.061 0 2.16 2.87 7.15 5.79 11.135 2.9-3.998 5.79-8.926 5.79-11.135 0-3.795-2.165-6.061-5.79-6.061Zm-.006 8.659a2.543 2.543 0 1 1 0-5.086 2.543 2.543 0 0 1 0 5.086Z" fill="url(#a)"/><path d="M16.5 0C7.387 0 0 7.387 0 16.5S7.387 33 16.5 33 33 25.613 33 16.5 25.613 0 16.5 0Zm.966 26.575-.966 1.269-.96-1.269c-.707-.924-6.892-9.18-6.892-13.295 0-4.935 3.08-8.124 7.852-8.124s7.852 3.19 7.852 8.124c0 4.108-6.185 12.365-6.886 13.295Z" fill="url(#b)"/><defs><linearGradient id="a" x1="10.71" y1="13.554" x2="23.515" y2="17.525" gradientUnits="userSpaceOnUse"><stop stop-color="#F0891A"/><stop offset="1" stop-color="#EAC632"/></linearGradient><linearGradient id="b" x1="0" y1="12.158" x2="33" y2="27.355" gradientUnits="userSpaceOnUse"><stop stop-color="#F0891A"/><stop offset="1" stop-color="#EAC632"/></linearGradient></defs></svg>