<svg width="56" height="56" viewBox="0 0 56 56" fill="none" xmlns="http://www.w3.org/2000/svg">
<g clip-path="url(#clip0_342:763)">
<path d="M53.3303 32.8009H52.4922V25.2524C52.4922 24.0573 51.8974 22.9992 50.9891 22.3563V21.3285C50.9891 19.8376 49.7762 18.6248 48.2853 18.6248H47.6596L50.0537 15.1117C50.8562 13.9341 50.551 12.3231 49.3735 11.5206L33.1279 0.449613C32.5575 0.0607846 31.87 -0.0827154 31.1914 0.046019C30.5132 0.174535 29.9255 0.559425 29.5368 1.12993L15.5148 21.7059H11.6129L12.5543 12.176C12.5649 12.0686 12.6347 11.9756 12.732 11.9389C13.9449 11.4816 14.996 10.6276 15.6916 9.5343C15.7464 9.44822 15.8497 9.399 15.9567 9.40983L22.0768 10.0145C22.5156 10.057 22.906 9.73741 22.9493 9.29882C22.9926 8.86022 22.6722 8.46964 22.2336 8.42633L16.1136 7.82171C15.4032 7.75214 14.7257 8.0795 14.3451 8.67757C13.8336 9.48147 13.0608 10.1093 12.1691 10.4455C11.4978 10.6986 11.0369 11.3015 10.966 12.0191L10.0092 21.7058H8.99171L10.4805 6.63346C10.5341 6.09096 11.0183 5.69239 11.5615 5.74675L23.9289 6.96847C24.3675 7.0108 24.7581 6.69142 24.8014 6.25283C24.8447 5.81424 24.5244 5.42366 24.0858 5.38035L11.7183 4.15863C10.3004 4.01874 9.0324 5.05835 8.89229 6.4765L7.69223 18.6248H5.64855C4.15777 18.6248 2.9448 19.8376 2.9448 21.3285V22.0296C1.72516 22.5912 0.875977 23.824 0.875977 25.2524V52.4534C0.875977 54.409 2.46695 56 4.42268 56H48.9456C50.9013 56 52.4922 54.409 52.4922 52.4534V44.905H53.3303C54.3194 44.905 55.1241 44.1003 55.1241 43.1112V34.5947C55.1242 33.6056 54.3194 32.8009 53.3303 32.8009ZM48.2853 20.2208C48.8963 20.2207 49.3932 20.7177 49.3932 21.3286V21.7352C49.2464 21.7166 49.0973 21.706 48.9456 21.706H45.5599L46.572 20.2208H48.2853ZM30.8556 2.02855C31.0043 1.81035 31.2291 1.66313 31.4885 1.61391C31.5505 1.60221 31.6128 1.5963 31.6746 1.5963C31.8711 1.5963 32.0632 1.65514 32.2292 1.76824L48.4748 12.8392C48.9252 13.1462 49.042 13.7624 48.7351 14.2128L43.6288 21.7057H42.4034L44.9069 18.0321C45.3129 17.4363 45.3463 16.6781 44.9939 16.0533C44.5256 15.2231 44.3357 14.2456 44.4593 13.3007C44.5512 12.5978 44.2419 11.9116 43.6521 11.5097L35.2304 5.7706C34.6406 5.36864 33.8887 5.33178 33.2682 5.67446C32.4342 6.13493 31.4549 6.31572 30.511 6.1836C29.811 6.08538 29.1011 6.40147 28.7011 6.98827L18.6715 21.7058H17.4461L30.8556 2.02855ZM31.207 15.5791C27.732 15.5791 24.8795 18.2887 24.6471 21.7058H20.6025L30.0196 7.887C30.0197 7.887 30.0197 7.887 30.0197 7.887C30.0732 7.80836 30.1619 7.76155 30.253 7.76155C30.2651 7.76155 30.2773 7.76243 30.2894 7.76407C31.5733 7.94366 32.9049 7.698 34.0394 7.07161C34.1286 7.02218 34.2432 7.02928 34.3316 7.08944L42.7534 12.8287C42.8415 12.8888 42.89 12.993 42.8769 13.094C42.7087 14.3791 42.9671 15.7084 43.604 16.8374C43.6551 16.928 43.6488 17.0442 43.5882 17.1333L40.4724 21.7057H37.7672C37.5345 18.2887 34.6821 15.5791 31.207 15.5791ZM36.1669 21.7059H26.2472C26.4757 19.1696 28.6123 17.1751 31.207 17.1751C33.8018 17.175 35.9384 19.1696 36.1669 21.7059ZM4.5407 21.3285C4.5407 20.7176 5.03759 20.2206 5.64855 20.2206H7.53462L7.38795 21.7058H4.5407V21.3285ZM2.47187 25.2524C2.47187 24.1768 3.34698 23.3017 4.42268 23.3017H48.9456C50.0213 23.3017 50.8963 24.1768 50.8963 25.2524V27.4665H2.47187V25.2524ZM50.8963 52.4534C50.8963 53.529 50.0213 54.4041 48.9456 54.4041H4.42268C3.34698 54.4041 2.47187 53.529 2.47187 52.4534V50.2392H6.7749C7.21568 50.2392 7.57279 49.882 7.57279 49.4413C7.57279 49.0006 7.21557 48.6434 6.7749 48.6434H2.47187V29.0624H50.8963V32.8009H43.3094H43.3093C40.9188 32.8009 38.8481 34.1943 37.8654 36.2113C37.8621 36.2181 37.8584 36.2246 37.855 36.2314C37.8467 36.2486 37.8395 36.2664 37.8314 36.2837C37.7144 36.5323 37.6126 36.7897 37.5298 37.0552C37.5296 37.056 37.5294 37.0567 37.5292 37.0574C37.3525 37.625 37.2573 38.228 37.2573 38.8529C37.2573 42.1901 39.9722 44.905 43.3092 44.905H43.3093H50.8962V48.6434H11.8842C11.4435 48.6434 11.0864 49.0006 11.0864 49.4413C11.0864 49.882 11.4436 50.2392 11.8842 50.2392H50.8963V52.4534ZM53.5283 43.1111C53.5283 43.2203 53.4395 43.3091 53.3303 43.3091H43.3095C41.6202 43.3091 40.1474 42.3642 39.3919 40.9752C39.3576 40.9121 39.3248 40.848 39.2934 40.7832C39.2307 40.6533 39.1742 40.52 39.1242 40.3835C38.949 39.906 38.8534 39.3904 38.8534 38.8529C38.8534 38.3155 38.9491 37.7999 39.1242 37.3223C39.1743 37.1859 39.2308 37.0526 39.2934 36.9227C39.3248 36.8578 39.3576 36.7937 39.3919 36.7306C40.1474 35.3417 41.6202 34.3968 43.3095 34.3968H53.3303C53.4394 34.3968 53.5283 34.4856 53.5283 34.5947V43.1111Z" fill="#1F2147"/>
<path d="M43.4963 35.6157C41.7111 35.6157 40.2588 37.0681 40.2588 38.8532C40.2588 40.6383 41.7111 42.0906 43.4963 42.0906C45.2815 42.0906 46.7338 40.6383 46.7338 38.8532C46.7338 37.0681 45.2815 35.6157 43.4963 35.6157ZM43.4963 40.4947C42.5911 40.4947 41.8547 39.7583 41.8547 38.8532C41.8547 37.9481 42.5911 37.2116 43.4963 37.2116C44.4015 37.2116 45.1379 37.948 45.1379 38.8532C45.1379 39.7584 44.4015 40.4947 43.4963 40.4947Z" fill="#1F2147"/>
</g>
<defs>
<clipPath id="clip0_342:763">
<rect width="56" height="56" fill="white"/>
</clipPath>
</defs>
</svg>
