<svg width="56" height="56" viewBox="0 0 56 56" fill="none" xmlns="http://www.w3.org/2000/svg">
<g clip-path="url(#clip0_342:775)">
<path d="M21.3991 32.8473C21.0786 32.5268 20.5591 32.5268 20.2391 32.8473C19.9187 33.1677 19.9187 33.6868 20.2391 34.0072C20.2391 34.0072 21.379 35.1476 21.3794 35.148C21.6879 35.456 22.2194 35.468 22.5394 35.148C22.8598 34.8275 22.8598 34.308 22.5394 33.9876L21.3991 32.8473Z" fill="#1F2147"/>
<path d="M34.002 20.2433C33.682 19.9228 33.1625 19.9228 32.8421 20.2433C32.522 20.5637 32.522 21.0832 32.8421 21.4032C32.8421 21.4032 33.9824 22.5435 33.9828 22.544C34.2887 22.8499 34.8253 22.8618 35.1428 22.544C35.4632 22.2235 35.4632 21.7044 35.1428 21.384L34.002 20.2433Z" fill="#1F2147"/>
<path d="M29.6823 25.8124C29.2303 25.8428 28.8885 26.2341 28.9188 26.6861C28.9581 27.2693 28.7291 27.8555 28.2903 28.2943C27.8515 28.7331 27.2649 28.9625 26.6817 28.9232C26.2301 28.8929 25.8384 29.2347 25.808 29.6867C25.7777 30.1387 26.1199 30.5296 26.5715 30.56C27.6392 30.6318 28.6966 30.2079 29.4503 29.4547C30.2236 28.6809 30.6269 27.6316 30.556 26.5759C30.5257 26.1243 30.1352 25.7821 29.6823 25.8124Z" fill="#1F2147"/>
<path d="M54.6629 8.86493C56.204 6.79279 56.0357 3.8418 54.1566 1.96234C52.2908 0.0965576 49.2929 -0.284546 47.1284 1.33044C46.03 0.468689 44.6846 0 43.2665 0C41.7725 0 40.3591 0.519958 39.2304 1.47186C37.6453 0.412292 35.4766 0.580627 34.0782 1.979L32.5585 3.49872C30.9678 5.08936 30.9678 7.67804 32.5585 9.2691L35.0288 11.7394L11.7336 35.0346L9.26331 32.5643C7.67267 30.9732 5.08399 30.9732 3.49292 32.5643C3.49292 32.5643 1.97577 34.0814 1.97364 34.0836C0.615422 35.4418 0.394108 37.6417 1.46564 39.2374C-0.44244 41.5052 -0.48901 44.8156 1.32593 47.1346C-0.215572 49.2064 -0.0476643 52.1582 1.83179 54.0372C3.68433 55.8902 6.6883 56.2901 8.85999 54.6691C9.95887 55.5309 11.3038 56 12.7223 56C14.2155 56 15.6289 55.4805 16.7572 54.529C17.4229 54.9759 18.2056 55.216 19.0255 55.216C20.1154 55.216 21.1399 54.7917 21.9107 54.021C21.9107 54.021 23.4291 52.5026 23.4299 52.5013C25.0039 50.9273 25.0022 48.3032 23.4299 46.7309L20.9596 44.2606L44.2548 20.9654L46.7251 23.4357C48.2747 24.9854 50.913 25.0187 52.4959 23.4357C52.4959 23.4357 54.0139 21.9173 54.0152 21.9164C55.3726 20.5591 55.5939 18.3579 54.5232 16.763C55.4747 15.6342 55.9942 14.2213 55.9942 12.7277C55.9942 11.3092 55.5251 9.96381 54.6629 8.86493ZM50.2871 1.92688C53.1355 1.92688 55.0278 5.2218 53.5111 7.646L48.3478 2.4823C48.9237 2.12085 49.5902 1.92688 50.2871 1.92688ZM5.70136 54.0727C4.6482 54.0727 3.72535 53.6104 2.99176 52.8773C1.766 51.6515 1.59467 49.7648 2.47736 48.354L7.64106 53.5173C7.06513 53.8792 6.3982 54.0727 5.70136 54.0727ZM22.9612 49.6161C22.9612 50.2484 22.7305 50.8807 22.27 51.3413C22.27 51.3413 20.7515 52.8593 20.7507 52.8606C19.8095 53.8018 18.2398 53.8005 17.3002 52.8606L8.73353 44.2943C8.41309 43.9739 7.89399 43.9739 7.57355 44.2943C7.25312 44.6147 7.25312 45.1339 7.57355 45.4543L15.531 53.4117C14.7278 54.0261 13.7507 54.3594 12.7223 54.3594C11.4846 54.3594 10.3212 53.8774 9.44617 53.0024L2.99176 46.5485C1.33405 44.8903 1.19776 42.2781 2.58289 40.4636L5.27839 43.1591C5.59882 43.4796 6.11792 43.4796 6.43836 43.1591C6.75879 42.8387 6.75879 42.3196 6.43836 41.9991C6.43836 41.9991 3.14173 38.7025 3.13361 38.6944C2.19452 37.7553 2.19751 36.1801 3.13361 35.244L4.6529 33.7247C5.60437 32.7732 7.15229 32.7732 8.10334 33.7247C8.10334 33.7247 22.2636 47.8849 22.27 47.8909C22.731 48.3519 22.9612 48.9842 22.9612 49.6161ZM19.7996 43.1006L12.894 36.195L36.1892 12.8998L43.0948 19.8054L19.7996 43.1006ZM52.8548 20.756L51.3355 22.2758C50.3845 23.2268 48.8366 23.2268 47.8851 22.2758L33.7189 8.10913C32.7674 7.15808 32.7674 5.60974 33.7189 4.65869L35.2382 3.1394C36.1892 2.18793 37.7371 2.18793 38.6886 3.1394L47.4301 11.8809C47.7505 12.2013 48.2696 12.2013 48.59 11.8809C48.9105 11.5604 48.9105 11.0413 48.59 10.7209L40.4578 2.58826C42.2728 1.20355 44.8845 1.33984 46.5427 2.99756L52.9967 9.45154C53.8717 10.3265 54.3536 11.4904 54.3536 12.7277C54.3536 13.756 54.0208 14.7336 53.406 15.5368L50.8429 12.9733C50.5225 12.6529 50.0029 12.6529 49.6825 12.9733C49.3625 13.2938 49.3625 13.8129 49.6825 14.1333C49.6825 14.1333 52.8501 17.3005 52.8548 17.3056C53.7947 18.2455 53.793 19.8178 52.8548 20.756Z" fill="#1F2147"/>
</g>
<defs>
<clipPath id="clip0_342:775">
<rect width="56" height="56" fill="white"/>
</clipPath>
</defs>
</svg>
