<svg width="56" height="56" viewBox="0 0 56 56" fill="none" xmlns="http://www.w3.org/2000/svg">
<g clip-path="url(#clip0_342:785)">
<path d="M47.5889 24.6965L45.6381 20.4766C45.4481 20.0656 44.9612 19.8865 44.5494 20.0764C44.1382 20.2664 43.9591 20.7538 44.1492 21.165L45.7783 24.6892H24.5463C24.0933 24.6892 23.7262 25.0563 23.7262 25.5094C23.7262 25.9624 24.0933 26.3296 24.5463 26.3296H47.4103C47.8093 26.3296 48.1339 26.6541 48.1339 27.053V28.7496C48.1339 29.1486 47.8093 29.4732 47.4103 29.4732H17.8847C17.4859 29.4732 17.1613 29.1486 17.1613 28.7496V27.053C17.1613 26.6541 17.4859 26.3296 17.8847 26.3296H21.051C21.5041 26.3296 21.8712 25.9624 21.8712 25.5094C21.8712 25.0563 21.5041 24.6892 21.051 24.6892H19.5168L23.5061 16.0594C23.6751 15.694 24.0444 15.4578 24.447 15.4578H40.8482C41.2509 15.4578 41.6202 15.694 41.7891 16.0594L42.6823 17.9915C42.8722 18.4024 43.3593 18.5818 43.7709 18.3917C44.1821 18.2016 44.3612 17.7142 44.1712 17.303L43.278 15.371C42.8418 14.4273 41.888 13.8175 40.8482 13.8175H35.3605C34.9633 6.13126 28.5867 0 20.8037 0C12.7654 0 6.22583 6.5396 6.22583 14.5778V41.3612C6.22583 41.8143 6.59294 42.1814 7.04601 42.1814C7.49908 42.1814 7.8662 41.8143 7.8662 41.3612V14.5778C7.8662 7.4441 13.6699 1.64037 20.8037 1.64037C27.682 1.64037 33.323 7.03631 33.7181 13.8174H31.5268C31.1352 8.24307 26.4757 3.82753 20.8037 3.82753C14.8759 3.82753 10.0534 8.6501 10.0534 14.5778V55.1798C10.0534 55.6329 10.4205 56 10.8735 56C11.3266 56 11.6937 55.6329 11.6937 55.1798V14.5778C11.6937 9.5546 15.7804 5.4679 20.8037 5.4679C25.5706 5.4679 29.4914 9.14888 29.8794 13.8174H24.4469C23.4072 13.8174 22.4534 14.4272 22.0171 15.3709L17.706 24.6965C16.4858 24.7882 15.5207 25.8096 15.5207 27.0529V28.7495C15.5207 30.053 16.581 31.1134 17.8845 31.1134H47.4102C48.7137 31.1134 49.7741 30.053 49.7741 28.7495V27.0529C49.7743 25.8096 48.8093 24.7882 47.5889 24.6965Z" fill="#1F2147"/>
<path d="M7.04601 44.0366C6.59294 44.0366 6.22583 44.4037 6.22583 44.8568V55.18C6.22583 55.633 6.59294 56.0002 7.04601 56.0002C7.49908 56.0002 7.8662 55.633 7.8662 55.18V44.8568C7.8662 44.4037 7.49908 44.0366 7.04601 44.0366Z" fill="#1F2147"/>
<path d="M20.8038 34.4878C20.3508 34.4878 19.9836 34.8549 19.9836 35.308V39.3419C19.9836 39.7949 20.3508 40.1621 20.8038 40.1621C21.2569 40.1621 21.624 39.7949 21.624 39.3419V35.308C21.624 34.855 21.2568 34.4878 20.8038 34.4878Z" fill="#1F2147"/>
<path d="M20.8038 42.9692C20.3508 42.9692 19.9836 43.3364 19.9836 43.7894V55.1798C19.9836 55.6329 20.3508 56 20.8038 56C21.2569 56 21.624 55.6329 21.624 55.1798V43.7894C21.624 43.3364 21.2568 42.9692 20.8038 42.9692Z" fill="#1F2147"/>
<path d="M27.3243 38.522C26.8713 38.522 26.5042 38.8891 26.5042 39.3422V48.6829C26.5042 49.1359 26.8713 49.503 27.3243 49.503C27.7774 49.503 28.1445 49.1359 28.1445 48.6829V39.3422C28.1445 38.8891 27.7773 38.522 27.3243 38.522Z" fill="#1F2147"/>
<path d="M44.4913 34.4878C44.0383 34.4878 43.6711 34.8549 43.6711 35.308V39.3419C43.6711 39.7949 44.0383 40.1621 44.4913 40.1621C44.9444 40.1621 45.3115 39.7949 45.3115 39.3419V35.308C45.3115 34.855 44.9444 34.4878 44.4913 34.4878Z" fill="#1F2147"/>
<path d="M44.4913 42.9692C44.0383 42.9692 43.6711 43.3364 43.6711 43.7894V55.1798C43.6711 55.6329 44.0383 56 44.4913 56C44.9444 56 45.3115 55.6329 45.3115 55.1798V43.7894C45.3115 43.3364 44.9444 42.9692 44.4913 42.9692Z" fill="#1F2147"/>
<path d="M37.9703 38.522C37.5173 38.522 37.1501 38.8891 37.1501 39.3422V48.6829C37.1501 49.1359 37.5173 49.503 37.9703 49.503C38.4234 49.503 38.7905 49.1359 38.7905 48.6829V39.3422C38.7905 38.8891 38.4234 38.522 37.9703 38.522Z" fill="#1F2147"/>
<path d="M32.6476 33.9707C32.1945 33.9707 31.8274 34.3378 31.8274 34.7909V44.0122C31.8274 44.4652 32.1945 44.8324 32.6476 44.8324C33.1007 44.8324 33.4678 44.4652 33.4678 44.0122V34.7909C33.4678 34.3378 33.1005 33.9707 32.6476 33.9707Z" fill="#1F2147"/>
<path d="M32.6476 47.3135C32.1945 47.3135 31.8274 47.6806 31.8274 48.1337V55.1799C31.8274 55.633 32.1945 56.0001 32.6476 56.0001C33.1007 56.0001 33.4678 55.633 33.4678 55.1799V48.1337C33.4678 47.6807 33.1005 47.3135 32.6476 47.3135Z" fill="#1F2147"/>
</g>
<defs>
<clipPath id="clip0_342:785">
<rect width="56" height="56" fill="white"/>
</clipPath>
</defs>
</svg>
