<svg width="60" height="60" viewBox="0 0 60 60" fill="none" xmlns="http://www.w3.org/2000/svg">
<path d="M55.3123 28.0933H48.8257C48.6526 27.5616 48.3158 27.0983 47.8633 26.7698C47.4109 26.4412 46.866 26.2643 46.3069 26.2643C45.7477 26.2643 45.2029 26.4412 44.7505 26.7698C44.298 27.0983 43.9611 27.5616 43.7881 28.0933H37.3015C36.7112 28.0941 36.1453 28.3289 35.7279 28.7463C35.3105 29.1637 35.0757 29.7296 35.0749 30.3199V30.5936C34.1196 30.3193 33.1863 30.0693 32.2751 29.8436C34.1978 28.2651 35.6478 26.1869 36.4657 23.8375C36.5491 23.8422 36.6359 23.8502 36.716 23.8502C37.2488 23.8649 37.778 23.7598 38.2648 23.5428C38.7515 23.3258 39.1834 23.0024 39.5285 22.5963C39.9473 22.0908 40.2305 21.487 40.3512 20.8418C40.4719 20.1966 40.4263 19.5313 40.2185 18.9086C40.1033 18.571 39.9177 18.2616 39.6741 18.0009C39.4305 17.7403 39.1343 17.5342 38.8052 17.3964C38.5024 17.2788 38.1809 17.2169 37.856 17.2136C38.6562 14.9439 39.7493 10.5405 37.4956 7.72191C37.8605 6.70541 38.0314 5.62944 37.9995 4.54988C37.9937 4.43835 37.9652 4.32918 37.9157 4.22907C37.8662 4.12896 37.7967 4.04001 37.7117 3.96769C37.6271 3.89468 37.5284 3.84005 37.4216 3.80729C37.3148 3.77452 37.2024 3.76434 37.0915 3.77738C35.8142 3.87194 34.5306 3.71947 33.311 3.32832C31.2113 2.74419 29.041 2.45238 26.8615 2.46113C20.9904 2.46113 18.8876 5.14988 18.3302 6.10003C17.6546 6.39894 17.0451 6.82926 16.5373 7.36594C16.0295 7.90263 15.6335 8.53496 15.3724 9.22613C14.3285 11.928 15.2013 15.3166 15.8684 17.2132C15.5433 17.2164 15.2216 17.2785 14.9187 17.3964C14.5896 17.5342 14.2935 17.7402 14.0499 18.0008C13.8064 18.2615 13.6209 18.5709 13.5059 18.9086C13.2982 19.5315 13.2526 20.1969 13.3733 20.8423C13.494 21.4876 13.7771 22.0916 14.1959 22.5972C14.5411 23.0032 14.973 23.3266 15.4597 23.5435C15.9465 23.7604 16.4757 23.8654 17.0084 23.8507C17.0885 23.8507 17.1748 23.8427 17.2587 23.838C18.0763 26.1866 19.5255 28.2644 21.447 29.8432C18.3809 30.603 15.664 31.4903 14.1893 31.9994C13.0637 32.3881 11.9174 32.7141 10.7557 32.9758L9.75446 33.2008C8.53561 33.4689 7.41294 34.0643 6.50721 34.9229C5.60149 35.7814 4.94699 36.8707 4.61415 38.0735C3.88965 40.7719 3.56929 43.5629 3.66352 46.3553C3.70222 47.5999 3.56957 48.8439 3.2693 50.0524C2.72976 52.2334 2.45822 54.4721 2.46071 56.7189C2.46071 56.9365 2.54714 57.1451 2.70097 57.299C2.85481 57.4528 3.06346 57.5392 3.28102 57.5392C3.49858 57.5392 3.70723 57.4528 3.86107 57.299C4.01491 57.1451 4.10134 56.9365 4.10134 56.7189C4.099 54.6071 4.35385 52.5029 4.86024 50.4527C5.19704 49.0984 5.34609 47.7043 5.30321 46.3094C5.21284 43.6791 5.51298 41.0498 6.19384 38.5075C6.44845 37.5924 6.94757 36.7639 7.63758 36.111C8.32759 35.4582 9.18242 35.0057 10.1102 34.8021L11.112 34.5771C11.7602 34.4313 12.4095 34.263 13.0545 34.0769V56.7189C13.0545 56.9365 13.1409 57.1451 13.2947 57.299C13.4486 57.4528 13.6572 57.5392 13.8748 57.5392C14.0923 57.5392 14.301 57.4528 14.4548 57.299C14.6087 57.1451 14.6951 56.9365 14.6951 56.7189V33.5594L14.7209 33.551C15.3462 33.3349 16.2002 33.0494 17.209 32.7349C17.5776 34.2746 18.1301 35.7644 18.8548 37.1721C20.7546 40.7964 23.5235 42.7127 26.8615 42.7127C31.1412 42.7127 33.6584 39.6138 35.0749 36.7019V55.3127C35.0757 55.903 35.3105 56.4689 35.7279 56.8863C36.1453 57.3037 36.7112 57.5385 37.3015 57.5392H55.3123C55.9026 57.5385 56.4685 57.3037 56.8859 56.8863C57.3033 56.4689 57.5381 55.903 57.5388 55.3127V30.3199C57.5381 29.7296 57.3033 29.1637 56.8859 28.7463C56.4685 28.3289 55.9026 28.0941 55.3123 28.0933ZM38.6857 19.4918C38.788 19.8414 38.8039 20.2107 38.7319 20.5678C38.66 20.9249 38.5024 21.2593 38.2727 21.5421C38.1058 21.7355 37.9013 21.893 37.6717 22.0051C37.442 22.1172 37.192 22.1815 36.9368 22.1941C37.1775 21.1149 37.3135 20.0149 37.3427 18.9096C37.6241 18.8305 37.9225 18.8347 38.2015 18.9218C38.3195 18.9748 38.4242 19.0535 38.508 19.1521C38.5917 19.2507 38.6525 19.3667 38.6857 19.4918ZM16.902 9.81394C17.1029 9.28372 17.4147 8.8025 17.8166 8.40245C18.2184 8.00239 18.701 7.69271 19.2321 7.4941C19.3317 7.45295 19.4222 7.39256 19.4985 7.31639C19.5748 7.24022 19.6352 7.14976 19.6765 7.05019C19.6887 7.02113 20.9665 4.10175 26.8615 4.10175C28.9051 4.09159 30.9403 4.36578 32.9084 4.91644C34.0186 5.2541 35.17 5.43769 36.3302 5.46207C36.2776 6.16926 36.0982 6.86123 35.8006 7.50488C35.7235 7.65805 35.6964 7.83153 35.7232 8.00089C35.7499 8.17026 35.8291 8.32696 35.9496 8.44894C38.1152 10.6432 36.9649 14.8511 36.2379 16.8541L34.5935 15.1943L34.3629 13.413C34.3162 13.0484 34.1975 12.6967 34.0135 12.3785C33.8295 12.0603 33.5841 11.7818 33.2914 11.5595C32.9987 11.3371 32.6647 11.1752 32.3088 11.0832C31.9529 10.9912 31.5823 10.971 31.2185 11.0238C28.3281 11.4335 25.3944 11.4335 22.504 11.0238C22.1403 10.9711 21.7698 10.9913 21.4141 11.0834C21.0583 11.1755 20.7245 11.3376 20.4321 11.5602C20.1397 11.7827 19.8946 12.0614 19.7111 12.3797C19.5276 12.6981 19.4094 13.0498 19.3634 13.4144L19.1323 15.1957L17.4841 16.8536C16.8898 15.2172 16.0141 12.1066 16.902 9.81394ZM15.4488 21.5421C15.2191 21.2593 15.0614 20.925 14.9894 20.5679C14.9174 20.2107 14.9332 19.8414 15.0354 19.4918C15.0686 19.3667 15.1294 19.2507 15.2131 19.1521C15.2969 19.0535 15.4016 18.9748 15.5196 18.9218C15.7988 18.8345 16.0973 18.8302 16.3788 18.9096C16.4078 20.0161 16.5439 21.1171 16.7852 22.1974C16.5297 22.1856 16.2792 22.1214 16.0495 22.0086C15.8199 21.8959 15.6159 21.7371 15.4502 21.5421H15.4488ZM18.0204 18.6405L20.4879 16.1524C20.6145 16.0244 20.6955 15.8584 20.7185 15.6799L20.9852 13.6221C21.0041 13.4734 21.0523 13.33 21.1271 13.2002C21.2019 13.0704 21.3018 12.9568 21.4209 12.8659C21.54 12.7751 21.6761 12.7089 21.8211 12.6712C21.966 12.6334 22.1171 12.6249 22.2654 12.6461C25.3126 13.0795 28.4057 13.0795 31.4529 12.6461C31.6013 12.6247 31.7525 12.633 31.8977 12.6706C32.0429 12.7083 32.1791 12.7744 32.2985 12.8652C32.4179 12.956 32.518 13.0696 32.593 13.1995C32.668 13.3293 32.7164 13.4728 32.7354 13.6216L33.0016 15.6794C33.0248 15.858 33.106 16.024 33.2327 16.1519L35.7002 18.64C35.5709 25.6511 31.3591 28.8635 28.8302 30.1563C28.2204 30.4668 27.5458 30.6287 26.8615 30.6287C26.1772 30.6287 25.5025 30.4668 24.8927 30.1563C22.3615 28.863 18.1516 25.6502 18.0218 18.6405H18.0204ZM33.3907 36.453C31.7707 39.5177 29.5737 41.0716 26.8601 41.0716C21.3471 41.0716 19.3132 34.4622 18.7859 32.2591C20.1363 31.8653 21.6546 31.4622 23.2277 31.106C23.5479 31.2986 23.8559 31.4688 24.1441 31.616C24.9852 32.0446 25.9158 32.268 26.8598 32.268C27.8039 32.268 28.7345 32.0446 29.5756 31.616C29.8629 31.4693 30.1709 31.2991 30.4906 31.1064C31.9029 31.4243 33.3921 31.8096 34.9362 32.2582C34.5951 33.7139 34.0766 35.1223 33.3921 36.4516L33.3907 36.453ZM52.781 32.8511V52.7814H39.8327V32.8511H52.781ZM44.4781 29.7339C44.6956 29.7338 44.9042 29.6474 45.058 29.4935C45.2118 29.3397 45.2982 29.1311 45.2984 28.9136C45.2943 28.7787 45.3173 28.6443 45.3661 28.5184C45.4149 28.3926 45.4884 28.2778 45.5824 28.1809C45.6764 28.084 45.7889 28.0069 45.9132 27.9543C46.0376 27.9017 46.1712 27.8746 46.3062 27.8746C46.4412 27.8746 46.5748 27.9017 46.6991 27.9543C46.8234 28.0069 46.9359 28.084 47.0299 28.1809C47.1239 28.2778 47.1975 28.3926 47.2463 28.5184C47.2951 28.6443 47.3181 28.7787 47.314 28.9136C47.3141 29.1311 47.4006 29.3397 47.5544 29.4935C47.7082 29.6474 47.9168 29.7338 48.1343 29.7339H49.1187V31.2105H43.4937V29.7339H44.4781ZM55.8982 55.3127C55.8981 55.468 55.8363 55.617 55.7265 55.7269C55.6166 55.8367 55.4676 55.8985 55.3123 55.8986H37.3015C37.1461 55.8985 36.9972 55.8367 36.8873 55.7269C36.7775 55.617 36.7157 55.468 36.7156 55.3127V30.3199C36.7157 30.1645 36.7775 30.0156 36.8873 29.9057C36.9972 29.7958 37.1461 29.7341 37.3015 29.7339H41.8526V31.2105H39.0124C38.9047 31.2104 38.798 31.2316 38.6984 31.2728C38.5989 31.314 38.5084 31.3744 38.4322 31.4506C38.3561 31.5268 38.2956 31.6173 38.2544 31.7168C38.2132 31.8164 38.1921 31.9231 38.1921 32.0308V53.6022C38.1921 53.8198 38.2785 54.0284 38.4324 54.1823C38.5862 54.3361 38.7949 54.4225 39.0124 54.4225H53.6018C53.8193 54.4224 54.0279 54.3359 54.1817 54.1821C54.3355 54.0283 54.422 53.8197 54.4221 53.6022V32.0308C54.4221 31.8133 54.3357 31.6046 54.1819 31.4508C54.028 31.2969 53.8194 31.2105 53.6018 31.2105H50.7612V29.7339H55.3123C55.4676 29.7341 55.6166 29.7958 55.7265 29.9057C55.8363 30.0156 55.8981 30.1645 55.8982 30.3199V55.3127Z" fill="#1F2147"/>
</svg>
