<svg width="33" height="33" fill="none" xmlns="http://www.w3.org/2000/svg"><g clip-path="url(#a)"><path d="M28.165 4.83c-6.444-6.442-16.892-6.44-23.334.004-6.443 6.445-6.442 16.892.003 23.335 6.445 6.442 16.892 6.44 23.335-.004a16.5 16.5 0 0 0-.004-23.335Zm-3.177 18.154-.002.002v-.005l-.836.83a4.4 4.4 0 0 1-4.152 1.188 14.62 14.62 0 0 1-4.246-1.903 19.62 19.62 0 0 1-3.35-2.7A19.767 19.767 0 0 1 9.9 17.358a15.397 15.397 0 0 1-1.881-3.806 4.4 4.4 0 0 1 1.1-4.493l.979-.979a.698.698 0 0 1 .987-.002l.003.002 3.09 3.091a.699.699 0 0 1 .003.988l-.002.002-1.815 1.815a1.48 1.48 0 0 0-.154 1.925c.656.901 1.382 1.749 2.172 2.536.88.884 1.838 1.688 2.86 2.403a1.49 1.49 0 0 0 1.903-.165l1.755-1.782a.698.698 0 0 1 .99 0l3.096 3.102a.698.698 0 0 1 .002.988Z" fill="url(#b)"/></g><defs><linearGradient id="b" x1="0" y1="12.157" x2="33" y2="27.355" gradientUnits="userSpaceOnUse"><stop stop-color="#F0891A"/><stop offset="1" stop-color="#EAC632"/></linearGradient><clipPath id="a"><path fill="#fff" d="M0 0h33v33H0z"/></clipPath></defs></svg>