<svg width="14" height="14" viewBox="0 0 14 14" fill="none" xmlns="http://www.w3.org/2000/svg">
<g clip-path="url(#clip0_2:417)">
<path d="M12.9247 7.27644C12.0067 7.20715 11.108 7.51075 10.4211 8.12431C8.43907 7.72015 6.25813 8.08322 4.70785 9.42301C4.95603 7.79086 4.89945 5.0322 4.89945 5.0322C4.91728 4.74471 5.07967 4.48112 5.33878 4.32772C6.26978 3.77663 6.36371 3.38666 6.95841 3.18992C7.58857 2.98145 8.14756 2.77837 8.23115 2.53271C8.33126 2.23849 8.22513 1.91942 7.89884 1.87345C7.71629 1.85459 7.49426 1.86593 7.25758 1.89694L7.28801 1.83266C7.55264 1.30834 7.77314 1.10753 7.77314 0.696196C7.77314 -0.165378 6.39917 0.0160205 4.4949 0.0160205C2.97609 0.0160205 2.92931 2.19395 2.97262 3.07559C2.98282 3.28294 2.92799 3.48879 2.81312 3.66603C2.44215 4.23877 2.72644 4.68302 2.26772 5.47698C0.04908 9.31732 0.708064 11.6381 1.1206 12.4927C1.26593 12.7938 1.51449 13.0431 1.83009 13.1889C2.94511 13.7038 4.02571 13.4356 4.03315 13.4315C4.04097 13.4663 7.46602 14.5651 12.8394 13.6125C12.8679 13.6039 13.3021 13.4657 13.3021 12.9952C13.3021 12.4908 13.3021 8.21173 13.3021 7.68665C13.3021 7.47258 13.1381 7.29255 12.9247 7.27644Z" fill="#F4D44E"/>
<path d="M3.25226 13.1888C2.93663 13.0431 2.68813 12.7937 2.54278 12.4926C2.13021 11.6381 1.47123 9.31726 3.6899 5.47691C4.14862 4.6829 3.86427 4.2387 4.2353 3.66596C4.35014 3.48872 4.40497 3.28287 4.3948 3.07552C4.35151 2.19388 4.39824 0.0159504 5.91708 0.0159504C6.13542 0.0159504 6.34667 0.0135715 6.54978 0.0106457C5.99976 -0.0159598 5.29408 0.0159504 4.4949 0.0159504C2.97609 0.0159504 2.92931 2.19388 2.97262 3.07552C2.98282 3.28287 2.92799 3.48872 2.81312 3.66596C2.44215 4.2387 2.72644 4.68295 2.26772 5.47691C0.0490799 9.31726 0.708064 11.6381 1.1206 12.4926C1.26593 12.7937 1.51449 13.0431 1.83009 13.1888C2.87385 13.6708 3.88727 13.4666 4.01871 13.4352C3.77404 13.3871 3.51422 13.3097 3.25226 13.1888Z" fill="#E8C842"/>
<path d="M5.18555 1.39971L5.17401 1.43515C4.96064 2.08998 5.74932 2.5531 6.49146 2.23069L7.26108 1.89638C7.25982 1.89655 7.25861 1.89666 7.25736 1.89682L7.28784 1.83259C7.40192 1.60657 7.50774 1.4407 7.59131 1.29214L6.32313 1.84301C6.13738 1.92364 5.92788 1.93794 5.72977 1.86021C5.60363 1.81052 5.53752 1.68409 5.57596 1.56607L5.5875 1.53063C5.65039 1.33756 5.9016 1.36556 6.42835 1.29892C6.54434 1.28585 6.62777 1.18123 6.6147 1.06524C6.60163 0.949249 6.49698 0.865523 6.38102 0.878894L5.81407 0.942769C5.50347 0.974242 5.26854 1.14509 5.18555 1.39971Z" fill="#DBBC3B"/>
</g>
<defs>
<clipPath id="clip0_2:417">
<rect width="14" height="14" fill="white"/>
</clipPath>
</defs>
</svg>
