<svg width="26" height="26" fill="none" xmlns="http://www.w3.org/2000/svg"><g clip-path="url(#a)" fill="#fff"><path d="m25.702 24.265-7.336-7.335c3.343-4.066 3.115-10.103-.683-13.9-4.04-4.04-10.613-4.04-14.653 0-4.04 4.04-4.04 10.613 0 14.653 3.796 3.797 9.832 4.027 13.9.683l7.335 7.336a1.016 1.016 0 1 0 1.437-1.437Zm-9.455-8.018c-3.248 3.248-8.533 3.248-11.78 0-3.249-3.248-3.249-8.533 0-11.78 3.247-3.249 8.532-3.249 11.78 0 3.248 3.247 3.248 8.532 0 11.78Z"/><path d="M15.33 9.34h-3.957V5.384a1.016 1.016 0 0 0-2.032 0v3.958H5.383a1.016 1.016 0 1 0 0 2.032h3.958v3.958a1.016 1.016 0 0 0 2.032 0v-3.958h3.958a1.016 1.016 0 0 0 0-2.032Z"/></g><defs><clipPath id="a"><path fill="#fff" d="M0 0h26v26H0z"/></clipPath></defs></svg>
